<svg width="70" height="70" viewBox="0 0 70 70" fill="none" xmlns="http://www.w3.org/2000/svg">
<path d="M62.5 7.49999H55V2.50005C55 1.11929 53.8807 0 52.5 0C51.1192 0 49.9999 1.11929 49.9999 2.50005V7.49999H19.9999V2.50005C19.9999 1.11929 18.8807 0 17.5 0C16.1194 0 15 1.11929 15 2.50005V7.49999H7.49999C3.35786 7.49999 0 10.8579 0 15V62.5C0 66.6421 3.35786 70 7.49999 70H62.5C66.6421 70 70 66.6421 70 62.5V15C70 10.8579 66.6421 7.49999 62.5 7.49999ZM64.9999 62.5C64.9999 63.8808 63.8806 65.0001 62.4999 65.0001H7.49999C6.11923 65.0001 4.99995 63.8808 4.99995 62.5V30H64.9999V62.5ZM64.9999 25H4.99995V15C4.99995 13.6192 6.11923 12.4999 7.49999 12.4999H15V17.4999C15 18.8807 16.1193 19.9999 17.5 19.9999C18.8808 19.9999 20.0001 18.8807 20.0001 17.4999V12.4999H50.0001V17.4999C50.0001 18.8807 51.1194 19.9999 52.5001 19.9999C53.8809 19.9999 55.0002 18.8807 55.0002 17.4999V12.4999H62.5002C63.8809 12.4999 65.0002 13.6192 65.0002 15V25H64.9999Z" fill="#54A5E2"/>
<path d="M51.7061 35.7324C50.7373 34.7967 49.2014 34.7967 48.2327 35.7324L30.0001 53.9649L21.7675 45.7323C20.7744 44.7732 19.1917 44.8007 18.2326 45.7937C17.2968 46.7626 17.2968 48.2985 18.2326 49.2673L28.2326 59.2673C29.2089 60.2432 30.7914 60.2432 31.7676 59.2673L51.7675 39.2674C52.7267 38.2742 52.6992 36.6916 51.7061 35.7324Z" fill="#54A5E2"/>
</svg>
