<svg width="40" height="40" viewBox="0 0 40 40" fill="none" xmlns="http://www.w3.org/2000/svg">
<path d="M25.5725 22.4882L25.5725 22.488L25.7332 22.8761C26.0607 23.667 25.7562 24.5939 25.0237 25.034C24.6533 25.2568 24.2722 25.4814 23.889 25.7031C23.9717 26.469 23.9715 27.2438 23.8886 28.011C24.2705 28.232 24.6517 28.4567 25.0239 28.6804L24.9466 28.8089L25.0239 28.6804C25.7562 29.1205 26.0606 30.0475 25.7333 30.8382L25.7333 30.8382L24.8608 32.9447L24.7331 32.8919L24.8608 32.9447C24.5332 33.7355 23.6626 34.1759 22.8333 33.9691C22.4132 33.8644 21.9847 33.7538 21.5574 33.6397C21.0736 34.2407 20.5257 34.7886 19.9256 35.272C20.0403 35.7019 20.1509 36.1302 20.2549 36.5476C20.4616 37.3768 20.0212 38.2475 19.2307 38.575L19.1733 38.4364L19.2307 38.575L17.1242 39.4475L17.1242 39.4475C16.3334 39.7749 15.4065 39.4707 14.9662 38.7383L14.9662 38.7382C14.7422 38.3654 14.5176 37.9844 14.2972 37.6034C13.531 37.6858 12.7562 37.6857 11.9892 37.6029C11.7664 37.9881 11.5417 38.3692 11.32 38.7382L11.3199 38.7382C10.9982 39.2728 10.4181 39.5785 9.82225 39.5785C9.60045 39.5785 9.3761 39.5361 9.16172 39.4473L9.16169 39.4473L7.05517 38.5747C6.26453 38.2473 5.82424 37.3766 6.03091 36.5474C6.13541 36.1279 6.24608 35.6994 6.36035 35.2713C5.75938 34.7876 5.21148 34.2399 4.72802 33.6397C4.30022 33.754 3.87188 33.8646 3.4525 33.969C2.62275 34.1757 1.75255 33.7352 1.42508 32.9446L0.552491 30.8382L0.552485 30.8382C0.225004 30.0474 0.529389 29.1205 1.26171 28.6803L1.26173 28.6803C1.63298 28.4572 2.01405 28.2326 2.39674 28.0112C2.31413 27.2449 2.31434 26.4702 2.39717 25.7032C2.01479 25.4819 1.63352 25.2572 1.26187 25.0339L1.26187 25.0339C0.529534 24.5937 0.225157 23.6668 0.552556 22.8761L0.55256 22.876L1.42492 20.7697L1.42493 20.7696C1.75247 19.9792 2.62288 19.5384 3.45238 19.7453C3.87156 19.8497 4.30005 19.9603 4.72857 20.0747C5.21219 19.4738 5.75999 18.9258 6.36019 18.4424C6.24626 18.0159 6.13566 17.5875 6.03091 17.1668L25.5725 22.4882ZM25.5725 22.4882L24.8606 20.7696L24.7261 20.8253L24.8606 20.7696C24.5331 19.979 23.6628 19.5386 22.8332 19.7452C22.4134 19.8497 21.9851 19.9604 21.5575 20.0745M25.5725 22.4882L21.5575 20.0745M21.5575 20.0745C21.0741 19.4743 20.5262 18.9265 19.9252 18.4428C20.0393 18.0152 20.1501 17.5867 20.2546 17.1667C20.4613 16.3375 20.021 15.467 19.2304 15.1394L19.173 15.2779L19.2304 15.1394L17.1239 14.2669C17.1239 14.2669 17.1239 14.2669 17.1239 14.2669C16.3333 13.9393 15.4062 14.2435 14.9659 14.9761L14.9659 14.9762C14.7426 15.3477 14.5178 15.729 14.2966 16.1114C13.5295 16.0285 12.7549 16.0283 11.9887 16.1109C11.7668 15.7274 11.5421 15.3463 11.3197 14.9761L11.3196 14.9761C10.8792 14.2437 9.95235 13.9393 9.16162 14.2669C9.16162 14.2669 9.16162 14.2669 9.16162 14.2669L7.05517 15.1394L7.05516 15.1394C6.2647 15.4669 5.82425 16.3375 6.0309 17.1667L21.5575 20.0745ZM21.9146 31.666L21.9146 31.6661C22.31 31.7726 22.7074 31.8762 23.0988 31.975L23.8015 30.2779C23.454 30.0704 23.0997 29.8628 22.7457 29.659C22.1366 29.3083 21.7982 28.6323 21.8847 27.9368L22.0336 27.9553L21.8847 27.9367C21.9741 27.2188 21.9742 26.4916 21.8851 25.7755L22.0339 25.757L21.8851 25.7755C21.7986 25.0805 22.1372 24.405 22.7462 24.0544C23.1013 23.8499 23.4554 23.6423 23.8015 23.4357L23.0987 21.7388C22.7078 21.8375 22.3106 21.9412 21.9151 22.0477L21.9151 22.0477C21.2363 22.2303 20.5194 21.992 20.0892 21.4395C19.6455 20.8699 19.1313 20.3559 18.5608 19.9117C18.0077 19.4812 17.7689 18.7638 17.9516 18.0851L18.0952 18.1238L17.9516 18.0851C18.0582 17.6895 18.1618 17.2921 18.2606 16.9009L16.5637 16.1981C16.3566 16.5451 16.1489 16.8993 15.9449 17.2538L15.8149 17.179L15.9449 17.2538C15.5943 17.8628 14.9185 18.2015 14.2226 18.1148L14.2226 18.1148C13.5046 18.0253 12.7775 18.0253 12.0615 18.1144L21.9146 31.666ZM21.9146 31.666C21.2358 31.4835 20.5185 31.7221 20.0881 32.2752C19.6438 32.8458 19.1297 33.36 18.56 33.8036L18.56 33.8036M21.9146 31.666L18.56 33.8036M18.56 33.8036C18.0075 34.2339 17.7692 34.951 17.9519 35.6294M18.56 33.8036L15.9452 36.4606M15.9452 36.4606L15.9452 36.4607C16.1486 36.8139 16.3561 37.168 16.5638 37.5159L18.2607 36.8131C18.1625 36.4242 18.059 36.027 17.9519 35.6294M15.9452 36.4606C15.5946 35.8517 14.9189 35.5135 14.2242 35.5996L14.2241 35.5996M15.9452 36.4606L14.2241 35.5996M17.9519 35.6294L18.0968 35.5904L17.9519 35.6294C17.9519 35.6294 17.9519 35.6294 17.9519 35.6294ZM14.2241 35.5996C13.5077 35.6885 12.7805 35.6885 12.0631 35.5992L12.063 35.5992M14.2241 35.5996L12.063 35.5992M12.063 35.5992C11.3665 35.5127 10.6914 35.8508 10.3408 36.4599C10.1352 36.8169 9.92756 37.1712 9.72188 37.5158L8.02496 36.8129C8.12365 36.4221 8.22727 36.0248 8.33391 35.6289L8.33391 35.6289M12.063 35.5992L8.33391 35.6289M8.33391 35.6289C8.51667 34.9501 8.27781 34.2327 7.72476 33.8022L7.63263 33.9206M8.33391 35.6289L7.63263 33.9206M7.63263 33.9206L7.72476 33.8022C7.15417 33.3581 6.64004 32.844 6.19639 32.2745C5.76619 31.7218 5.04907 31.4835 4.37051 31.6662L4.37049 31.6662M7.63263 33.9206L4.37049 31.6662M4.37049 31.6662C3.97474 31.7728 3.57755 31.8764 3.18689 31.975M4.37049 31.6662L3.18689 31.975M3.18689 31.975L2.48399 30.2781C2.83049 30.0712 3.18465 29.8637 3.53926 29.6595C4.14823 29.3089 4.48675 28.6334 4.40039 27.9385L4.40039 27.9385C4.31127 27.222 4.31148 26.4949 4.40061 25.7774C4.48728 25.0819 4.14908 24.4057 3.53971 24.055C3.18518 23.8508 2.83091 23.6432 2.48391 23.436L3.18681 21.7391C3.57718 21.8376 3.97446 21.9413 4.37091 22.048C5.04949 22.2308 5.76685 21.9918 6.19755 21.4388L6.19758 21.4388C6.64175 20.8682 7.15589 20.354 7.72538 19.9105C8.27797 19.4802 8.51628 18.763 8.33354 18.0845L8.1887 18.1235L8.33354 18.0845C8.22727 17.6899 8.12366 17.2927 8.02473 16.9009L9.72167 16.1981C9.92801 16.5438 10.1356 16.8979 10.3402 17.2534L10.3403 17.2534C10.6909 17.8623 11.367 18.2013 12.0614 18.1144L3.18689 31.975Z" fill="#54A5E2" stroke="#54A5E2" stroke-width="0.3"/>
<path d="M10.8987 21.4391L10.8987 21.4392C7.9113 22.6763 6.4875 26.1124 7.72504 29.0992C8.32431 30.5458 9.45195 31.6729 10.8988 32.2721L10.8988 32.2721C11.6219 32.5715 12.3822 32.7214 13.1428 32.7214C13.9035 32.7214 14.6638 32.5715 15.387 32.2721L15.3871 32.2721C18.3745 31.0349 19.7982 27.5989 18.5608 24.6121L18.4222 24.6695L18.5608 24.6121C17.3234 21.6254 13.8866 20.2021 10.8987 21.4391ZM11.6552 23.265L11.6552 23.265C12.1404 23.0641 12.6429 22.9691 13.1376 22.9691C14.6644 22.9691 16.1153 23.8737 16.7346 25.3684C17.5548 27.3481 16.6109 29.6262 14.6306 30.4463C13.6711 30.8436 12.615 30.8436 11.6552 30.4463C10.6956 30.0489 9.94882 29.3022 9.55128 28.3429C8.73092 26.3632 9.67487 24.085 11.6552 23.265Z" fill="#54A5E2" stroke="#54A5E2" stroke-width="0.3"/>
<path d="M36.8556 6.43172L36.8556 6.43177C36.6956 6.64801 36.5306 6.86772 36.3631 7.08746C36.5859 7.51354 36.7704 7.95891 36.9142 8.41707C37.1883 8.45411 37.4602 8.49281 37.7257 8.53254C38.457 8.642 39.0071 9.28197 39.0072 10.0224V11.6919C39.0072 12.4323 38.457 13.0722 37.7256 13.1817C37.4602 13.2214 37.1882 13.26 36.9142 13.2971C36.7703 13.7555 36.5858 14.2007 36.3631 14.6267C36.5304 14.8461 36.6953 15.0659 36.8554 15.2823C37.2953 15.877 37.2316 16.7186 36.7081 17.242L35.5275 18.4224C35.5275 18.4224 35.5275 18.4224 35.5275 18.4224C35.0041 18.9459 34.1625 19.0095 33.568 18.5696C33.3512 18.4092 33.1314 18.2442 32.9123 18.0773C32.4863 18.3 32.041 18.4846 31.5827 18.6284C31.5457 18.9025 31.507 19.1743 31.4674 19.4398L31.4674 19.4398C31.358 20.1714 30.718 20.7214 29.9777 20.7214H28.3081C27.5677 20.7214 26.9278 20.1713 26.8183 19.4399C26.7786 19.1745 26.7399 18.9025 26.7029 18.6284C26.2447 18.4847 25.7994 18.3001 25.3732 18.0774C25.1542 18.2442 24.9346 18.4093 24.7176 18.5696C24.123 19.0094 23.2815 18.9459 22.7581 18.4223C22.7581 18.4223 22.7581 18.4223 22.7581 18.4223L21.5775 17.2418C21.054 16.7186 20.9904 15.8769 21.43 15.2824L21.4301 15.2824C21.5903 15.0659 21.7553 14.8462 21.9225 14.6267C21.6998 14.2006 21.5153 13.7553 21.3715 13.2971C21.0974 13.26 20.8255 13.2213 20.56 13.1816L20.5822 13.0332L20.56 13.1816C19.8286 13.0721 19.2786 12.4322 19.2786 11.6918V10.0223C19.2786 9.28187 19.8288 8.64199 20.5601 8.53254C20.8256 8.49281 21.0975 8.45416 21.3716 8.4171C21.5154 7.95879 21.7 7.51348 21.9226 7.08747C21.7552 6.86777 21.5902 6.64799 21.4303 6.43181C20.9905 5.83704 21.0542 4.99548 21.5778 4.47204L22.7582 3.29173C22.7582 3.29172 22.7582 3.29172 22.7582 3.29171C23.2816 2.76818 24.1231 2.7046 24.7178 3.14448M36.8556 6.43172L31.319 2.29653M36.8556 6.43172C37.2953 5.83705 37.2317 4.99558 36.7082 4.47227M36.8556 6.43172L36.7081 4.47225M24.7178 3.14448L24.6286 3.26507M24.7178 3.14448L24.6286 3.26507M24.7178 3.14448C24.9346 3.30484 25.1544 3.46982 25.3734 3.63679C25.7994 3.41403 26.2447 3.22952 26.703 3.08568C26.7401 2.81153 26.7787 2.53959 26.8184 2.27428L26.8184 2.27427C26.9278 1.54302 27.5677 0.992853 28.3081 0.992853H29.9777C30.718 0.992853 31.358 1.54302 31.4674 2.27434M24.6286 3.26507C24.87 3.44363 25.1151 3.62795 25.3588 3.81435L22.1002 7.07285C21.9132 6.82834 21.7289 6.58324 21.5509 6.34261C21.1554 5.80775 21.2126 5.04921 21.6839 4.57812L22.8643 3.39778C23.3353 2.92662 24.0938 2.86948 24.6286 3.26507ZM31.4674 2.27434L31.319 2.29653M31.4674 2.27434C31.4674 2.27434 31.4674 2.27433 31.4674 2.27432L31.319 2.29653M31.4674 2.27434C31.5071 2.53981 31.5457 2.8117 31.5827 3.08575M31.319 2.29653C31.3632 2.59189 31.406 2.89532 31.4469 3.20092M31.5827 3.08575C31.5519 3.07608 31.521 3.06658 31.4901 3.05728L31.4469 3.20092M31.5827 3.08575C32.041 3.2296 32.4863 3.41412 32.9124 3.63689M31.5827 3.08575C31.587 3.11749 31.5913 3.14926 31.5955 3.18105L31.4469 3.20092M31.4469 3.20092L32.9124 3.63689M32.9124 3.63689C32.8869 3.65632 32.8614 3.67577 32.8359 3.69524L32.927 3.81443L32.9981 3.68235C32.9696 3.66702 32.941 3.65187 32.9124 3.63689ZM32.9124 3.63689C33.1315 3.47 33.3511 3.30507 33.568 3.14457L33.6573 3.26515L33.5681 3.14457C34.1626 2.70466 35.0041 2.76827 35.5276 3.29186L35.4215 3.39793L35.5276 3.29187L32.9124 3.63689ZM36.7081 4.47225L36.6021 4.57834L36.7082 4.47227M36.7081 4.47225C36.7081 4.47226 36.7081 4.47226 36.7082 4.47227M36.7081 4.47225L36.7082 4.47227M36.3952 11.4232L36.3952 11.4232C36.6254 11.3932 36.8549 11.3618 37.0811 11.3295V10.385C36.8549 10.3526 36.6253 10.3213 36.3951 10.2912C35.7925 10.2126 35.2983 9.78455 35.1373 9.20025C35.002 8.70917 34.8055 8.23495 34.5534 7.79105L36.3952 11.4232ZM36.3952 11.4232C35.7925 11.5018 35.2983 11.9299 35.1374 12.5141M36.3952 11.4232L35.1374 12.5141M34.7899 15.4934C34.4558 15.059 34.4142 14.4718 34.6839 13.9974C34.9421 13.5429 35.1433 13.0572 35.282 12.5539C35.4268 12.0283 35.8714 11.6428 36.4146 11.5719L34.7899 15.4934ZM34.7899 15.4934C34.9583 15.7124 35.1254 15.9327 35.2879 16.1505L34.7899 15.4934ZM35.1374 12.5141C35.002 13.0054 34.8055 13.4795 34.5535 13.9233C34.2538 14.4505 34.3003 15.1028 34.671 15.5848L34.671 15.5848C34.8122 15.7685 34.9525 15.9531 35.09 16.1363L34.4221 16.8043C34.2384 16.6665 34.0537 16.5263 33.8704 16.3853C33.3885 16.0144 32.736 15.9684 32.2089 16.2676L32.2088 16.2677C31.765 16.5198 31.2908 16.7163 30.7998 16.8517C30.2154 17.0127 29.7873 17.5069 29.7089 18.1094C29.6789 18.3396 29.6476 18.5692 29.6152 18.7955H28.6705C28.6383 18.5693 28.6069 18.3397 28.5768 18.1097C28.5768 18.1097 28.5768 18.1097 28.5768 18.1097L28.4281 18.1291M35.1374 12.5141L26.0768 16.2678M28.4281 18.1291C28.3572 17.5859 27.9718 17.1412 27.446 16.9964C26.9429 16.8577 26.4574 16.6565 26.0027 16.3982M28.4281 18.1291C28.464 18.4035 28.5017 18.6772 28.5406 18.9455L28.4281 18.1291ZM26.0027 16.3982L26.0768 16.2678C26.0768 16.2678 26.0768 16.2678 26.0768 16.2678M26.0027 16.3982L26.0768 16.2678M26.0027 16.3982C25.5282 16.1286 24.9409 16.1701 24.5068 16.5042M26.0768 16.2678C25.5496 15.9683 24.8971 16.0145 24.4153 16.3853M24.5068 16.5042L24.4153 16.3853M24.5068 16.5042L24.4153 16.3853C24.4153 16.3853 24.4153 16.3853 24.4153 16.3853M24.5068 16.5042C24.2882 16.6723 24.0679 16.8392 23.8493 17.0023M24.4153 16.3853L23.1956 16.1363M23.8493 17.0023L23.9554 16.8962L23.8635 16.8043C23.8289 16.8303 23.7942 16.8562 23.7597 16.882L23.8493 17.0023ZM23.8493 17.0023L22.9977 16.1505M22.9977 16.1505L23.1179 16.2402C23.1437 16.2056 23.1696 16.171 23.1956 16.1363M22.9977 16.1505C23.1603 15.9325 23.3272 15.7123 23.4959 15.4931C23.8297 15.0588 23.8713 14.4717 23.6017 13.9972C23.3435 13.5427 23.1423 13.057 23.0036 12.5539L23.1956 16.1363M22.9977 16.1505L23.1037 16.0445L23.1956 16.1363M21.8904 11.4231C21.8904 11.4231 21.8904 11.4231 21.8904 11.4231L21.871 11.5718L21.8904 11.4231ZM21.8904 11.4231C21.6602 11.393 21.4306 11.3617 21.2044 11.3293M21.8904 11.4231L21.2044 11.3293M21.2044 11.3293V10.3848C21.4306 10.3525 21.6602 10.3211 21.8903 10.2911L21.8904 10.2911C22.493 10.2124 22.9872 9.78435 23.1481 9.2002C23.2835 8.70895 23.4799 8.2348 23.732 7.79099C24.0317 7.2638 23.9852 6.61138 23.6147 6.12953L23.6147 6.12949C23.4732 5.94563 23.333 5.76104 23.1956 5.57794L23.8635 4.90997C24.0472 5.04774 24.2318 5.18797 24.4151 5.32891C24.8968 5.69974 25.5492 5.74622 26.0768 5.44663L26.0768 5.44662C26.5204 5.19457 26.9946 4.99807 27.4857 4.86261L21.2044 11.3293ZM28.5767 3.60487C28.4983 4.20738 28.0702 4.70159 27.4858 4.8626L28.5767 3.60487ZM28.5767 3.60487C28.6067 3.37469 28.6382 3.14513 28.6705 2.91889H29.6151C29.6474 3.14505 29.6788 3.37457 29.7088 3.60462L29.7088 3.60464C29.7874 4.20733 30.2155 4.70159 30.7997 4.86253L28.5767 3.60487ZM34.4221 4.90995L35.09 5.57795L30.7997 4.86254C31.2909 4.99792 31.7652 5.19449 32.2089 5.44655C32.7363 5.74619 33.3887 5.69938 33.8703 5.329C34.0537 5.18797 34.2383 5.04771 34.4221 4.90995Z" fill="#54A5E2" stroke="#54A5E2" stroke-width="0.3"/>
<path d="M27.3883 10.857C27.3883 11.8244 28.1756 12.6116 29.1428 12.6116C30.1101 12.6116 30.8973 11.8244 30.8973 10.857L27.3883 10.857ZM27.3883 10.857C27.3883 9.88969 28.1755 9.10254 29.1428 9.10254M27.3883 10.857L29.1428 9.10254M29.1428 9.10254C30.1101 9.10254 30.8972 9.88975 30.8973 10.857L29.1428 9.10254ZM29.1428 7.27857C27.1695 7.27857 25.5642 8.88373 25.5642 10.8571C25.5642 12.8306 27.1694 14.4357 29.1428 14.4357C31.1162 14.4357 32.7214 12.8306 32.7214 10.8571C32.7214 8.88373 31.1162 7.27857 29.1428 7.27857Z" fill="#54A5E2" stroke="#54A5E2" stroke-width="0.3"/>
</svg>
