<svg id="Слой_1" data-name="Слой 1" xmlns="http://www.w3.org/2000/svg" viewBox="0 0 38.59 38.59"><defs><style>.cls-1{fill:#54a5e2;}</style></defs><path class="cls-1" d="M25,28.68,23.89,28a11.15,11.15,0,0,0,0-2.31c.38-.22.76-.44,1.13-.67a1.74,1.74,0,0,0,.71-2.15l-.87-2.11a1.75,1.75,0,0,0-2-1l-1.27.32a11.42,11.42,0,0,0-1.63-1.63c.11-.42.22-.85.32-1.27a1.75,1.75,0,0,0-1-2l-2.11-.87A1.73,1.73,0,0,0,15,15c-.23.37-.45.75-.67,1.13a11.15,11.15,0,0,0-2.31,0L11.32,15a1.74,1.74,0,0,0-2.16-.71l-2.1.87a1.75,1.75,0,0,0-1,2l.33,1.27a10.92,10.92,0,0,0-1.63,1.63l-1.28-.32a1.75,1.75,0,0,0-2,1L.55,22.88A1.75,1.75,0,0,0,1.26,25c.37.23.75.45,1.14.67A9.92,9.92,0,0,0,2.4,28l-1.14.67a1.76,1.76,0,0,0-.71,2.16l.87,2.1a1.77,1.77,0,0,0,2,1l1.28-.33a10.47,10.47,0,0,0,1.63,1.63L6,36.55a1.73,1.73,0,0,0,1,2l2.1.88a1.85,1.85,0,0,0,.66.13,1.75,1.75,0,0,0,1.5-.84c.22-.37.45-.75.67-1.14a9.92,9.92,0,0,0,2.31,0c.22.38.44.77.67,1.14a1.74,1.74,0,0,0,2.15.71l2.11-.87a1.75,1.75,0,0,0,1-2c-.1-.42-.21-.85-.32-1.28a10.92,10.92,0,0,0,1.63-1.63l1.27.33a1.77,1.77,0,0,0,2-1l.87-2.1A1.75,1.75,0,0,0,25,28.68Zm-7.07,7c.11.4.21.79.31,1.18l-1.7.71L16,36.46a1.75,1.75,0,0,0-1.51-.87h-.22a8.67,8.67,0,0,1-2.16,0,1.73,1.73,0,0,0-1.72.86c-.2.36-.41.71-.62,1.06L8,36.81c.1-.39.21-.78.31-1.18a1.73,1.73,0,0,0-.6-1.83A8.21,8.21,0,0,1,6.2,32.27a1.73,1.73,0,0,0-1.83-.6L3.19,32l-.71-1.7,1.06-.62a1.73,1.73,0,0,0,.86-1.72,8.67,8.67,0,0,1,0-2.16,1.74,1.74,0,0,0-.86-1.73l-1.06-.61.71-1.7,1.18.31a1.75,1.75,0,0,0,1.83-.61,8.52,8.52,0,0,1,1.53-1.53,1.73,1.73,0,0,0,.6-1.83L8,16.9l1.7-.7c.21.34.42.7.62,1.05a1.72,1.72,0,0,0,1.72.86,9.75,9.75,0,0,1,2.16,0,1.72,1.72,0,0,0,1.72-.86c.21-.35.42-.7.62-1.05l1.7.7c-.1.39-.2.79-.31,1.19a1.74,1.74,0,0,0,.61,1.82,8.86,8.86,0,0,1,1.53,1.53,1.75,1.75,0,0,0,1.83.61l1.18-.31.7,1.7-1.05.61a1.74,1.74,0,0,0-.86,1.73,9.18,9.18,0,0,1,0,2.16,1.75,1.75,0,0,0,.87,1.72l1.05.62L23.1,32l-1.18-.3a1.71,1.71,0,0,0-1.83.61,8.8,8.8,0,0,1-1.53,1.52A1.75,1.75,0,0,0,18,35.63Z" transform="translate(-0.42 -0.99)"/><path class="cls-1" d="M18.56,24.61A5.86,5.86,0,1,0,7.73,29.1a5.88,5.88,0,0,0,5.41,3.62,5.87,5.87,0,0,0,5.42-8.11Zm-1.83,3.73a3.89,3.89,0,1,1-5.08-5.08A4,4,0,0,1,13.14,23a3.86,3.86,0,0,1,3.59,2.4A3.83,3.83,0,0,1,16.73,28.34Z" transform="translate(-0.42 -0.99)"/><path class="cls-1" d="M37.73,8.53l-.82-.11a7.76,7.76,0,0,0-.55-1.33l.5-.66a1.53,1.53,0,0,0-.15-2L35.53,3.29a1.53,1.53,0,0,0-2-.15l-.66.5a7.76,7.76,0,0,0-1.33-.55c0-.28-.07-.55-.11-.82A1.51,1.51,0,0,0,30,1H28.31a1.51,1.51,0,0,0-1.49,1.28l-.12.82a7.62,7.62,0,0,0-1.33.55l-.65-.5a1.52,1.52,0,0,0-2,.15L21.58,4.47a1.51,1.51,0,0,0-.15,2l.49.66a8.65,8.65,0,0,0-.55,1.33l-.81.11A1.51,1.51,0,0,0,19.28,10v1.67a1.51,1.51,0,0,0,1.28,1.49l.81.12a8.48,8.48,0,0,0,.55,1.33l-.49.65a1.51,1.51,0,0,0,.15,2l1.18,1.18a1.51,1.51,0,0,0,2,.15l.65-.49a9.08,9.08,0,0,0,1.33.55l.12.81a1.51,1.51,0,0,0,1.49,1.28H30a1.51,1.51,0,0,0,1.49-1.28c0-.27.08-.54.11-.81a8.65,8.65,0,0,0,1.33-.55l.66.49a1.51,1.51,0,0,0,2-.15l1.18-1.18a1.53,1.53,0,0,0,.15-2l-.5-.65a8.1,8.1,0,0,0,.55-1.33l.82-.12A1.51,1.51,0,0,0,39,11.69V10A1.51,1.51,0,0,0,37.73,8.53Zm-3.18,5.39a1.5,1.5,0,0,0,.12,1.66l.42.56-.67.66c-.18-.13-.37-.27-.55-.42a1.5,1.5,0,0,0-1.66-.11,6.16,6.16,0,0,1-1.41.58,1.51,1.51,0,0,0-1.09,1.26l-.09.69h-.95l-.09-.69a1.51,1.51,0,0,0-1.09-1.26,5.82,5.82,0,0,1-1.41-.58,1.5,1.5,0,0,0-1.66.11c-.19.15-.37.29-.56.42l-.66-.66c.13-.19.27-.37.42-.56a1.5,1.5,0,0,0,.11-1.66,5.82,5.82,0,0,1-.58-1.41,1.51,1.51,0,0,0-1.26-1.09l-.68-.09v-.95l.68-.09A1.51,1.51,0,0,0,23.15,9.2a6.16,6.16,0,0,1,.58-1.41,1.5,1.5,0,0,0-.11-1.66c-.15-.18-.29-.37-.42-.55l.66-.67.56.42a1.5,1.5,0,0,0,1.66.12,5.84,5.84,0,0,1,1.41-.59,1.5,1.5,0,0,0,1.09-1.25l.09-.69h.95l.09.68A1.5,1.5,0,0,0,30.8,4.86a6.2,6.2,0,0,1,1.41.59,1.5,1.5,0,0,0,1.66-.12l.55-.42.67.67-.42.55a1.5,1.5,0,0,0-.12,1.66,6,6,0,0,1,.59,1.41,1.5,1.5,0,0,0,1.25,1.09l.69.09v.95l-.68.09a1.5,1.5,0,0,0-1.26,1.09A5.84,5.84,0,0,1,34.55,13.92Z" transform="translate(-0.42 -0.99)"/><path class="cls-1" d="M29.14,7.43a3.43,3.43,0,1,0,3.43,3.43A3.44,3.44,0,0,0,29.14,7.43Zm0,5.33a1.91,1.91,0,1,1,1.91-1.9A1.9,1.9,0,0,1,29.14,12.76Z" transform="translate(-0.42 -0.99)"/></svg>