<svg width="69" height="69" viewBox="0 0 69 69" fill="none" xmlns="http://www.w3.org/2000/svg">
<path d="M44.7315 37.946L44.7316 37.9457L45.1602 38.9806C45.7592 40.4273 45.2028 42.1219 43.8624 42.9274C43.2383 43.3026 42.5971 43.6808 41.952 44.0546C42.0851 45.3462 42.0848 46.6514 41.9512 47.945C42.5943 48.3176 43.2358 48.6961 43.8627 49.0728L43.6566 49.4156L43.8627 49.0728C45.2028 49.8783 45.7591 51.573 45.1603 53.0194L45.1603 53.0194L43.6334 56.7059L43.3476 56.5875L43.6334 56.7059C43.0342 58.1524 41.4426 58.9577 39.9251 58.5793C39.2174 58.4029 38.4962 58.217 37.7762 58.0253C36.9561 59.0342 36.0332 59.9573 35.0257 60.7767C35.2184 61.5008 35.4044 62.2218 35.5796 62.9251M44.7315 37.946L37.6273 57.5715C36.7314 58.7056 35.7042 59.7329 34.5719 60.6278C34.7882 61.4344 34.9965 62.2392 35.1914 63.0218C35.5216 64.3463 34.817 65.7401 33.5533 66.2637L29.867 67.7906C28.6026 68.3141 27.1192 67.8267 26.4158 66.6567C25.9956 65.9571 25.5739 65.2408 25.1615 64.5258M44.7315 37.946L43.6331 35.2942L43.6331 35.2941C43.034 33.8479 41.443 33.0426 39.925 33.4207L44.7315 37.946ZM35.5796 62.9251L35.2045 63.0185L35.5796 62.925C35.5796 62.925 35.5796 62.9251 35.5796 62.9251ZM35.5796 62.9251C35.9578 64.4425 35.1523 66.0341 33.7064 66.6332L33.7063 66.6332L30.02 68.1601L30.02 68.1601C28.5734 68.7591 26.8788 68.2032 26.073 66.8628L26.073 66.8627C25.6958 66.2349 25.3175 65.5937 24.9458 64.952M24.9458 64.952C25.0332 64.943 25.1206 64.9333 25.208 64.9231L25.1615 64.5258M24.9458 64.952C23.6538 65.0848 22.3486 65.0846 21.0555 64.9512C20.6798 65.5996 20.3014 66.2409 19.9278 66.8626L19.9277 66.8628C19.3388 67.8415 18.2778 68.3998 17.189 68.3998C16.7833 68.3998 16.3727 68.3223 15.9804 68.1599L15.9804 68.1598L12.294 66.6328C10.8477 66.0338 10.0425 64.4421 10.4207 62.9247L10.4207 62.9246C10.5968 62.2179 10.7828 61.4967 10.9748 60.7756M24.9458 64.952C24.9021 64.8765 24.8585 64.8011 24.815 64.7257L25.1615 64.5258M25.1615 64.5258C23.7279 64.6936 22.2752 64.6933 20.8398 64.5251C20.4224 65.2484 20.0007 65.9648 19.585 66.6566C19.0717 67.5096 18.1439 67.9998 17.189 67.9998C16.8343 67.9998 16.4759 67.9321 16.1335 67.7903L12.447 66.2633C11.1831 65.7397 10.4787 64.3459 10.8088 63.0214C11.0048 62.2345 11.2133 61.4295 11.4286 60.6267M1.2094 52.8664C0.685868 51.6022 1.17347 50.1187 2.34326 49.4155C3.03971 48.9971 3.75601 48.5753 4.47438 48.1609L1.2094 52.8664ZM1.2094 52.8664L2.73643 56.5527C3.25997 57.8165 4.653 58.5212 5.97844 58.191M1.2094 52.8664L5.97844 58.191M4.04823 47.9452C3.40385 48.3186 2.76261 48.6969 2.13725 49.0727L2.13718 49.0727C0.797074 49.8783 0.240794 51.5729 0.839841 53.0194L0.839857 53.0195L2.36688 56.7057C2.96591 58.1518 4.55673 58.9574 6.0751 58.5791C6.07512 58.5791 6.07514 58.5791 6.07515 58.5791L5.97844 58.191M4.04823 47.9452L8.22331 58.0253M4.04823 47.9452C3.91514 46.6531 3.91548 45.3481 4.04897 44.0549C3.40508 43.6817 2.76351 43.3033 2.13749 42.9271L2.13746 42.9271C0.797324 42.1216 0.241065 40.4269 0.839963 38.9805L0.839975 38.9805L2.36661 35.2943L2.36664 35.2942C2.96577 33.8483 4.55692 33.0423 6.07488 33.4208L4.04823 47.9452ZM5.97844 58.191C6.76505 57.9951 7.56981 57.7868 8.37211 57.5715M8.37211 57.5715L8.0583 57.8195C8.11282 57.8885 8.16783 57.9571 8.22331 58.0253M8.37211 57.5715L8.4758 57.9578C8.39165 57.9804 8.30749 58.0029 8.22331 58.0253M8.37211 57.5715C9.26728 58.704 10.2945 59.7309 11.4286 60.6267M8.22331 58.0253C9.0429 59.033 9.96589 59.9556 10.9748 60.7756M11.4286 60.6267L11.0423 60.5231C11.0197 60.6072 10.9972 60.6914 10.9748 60.7756M11.4286 60.6267L11.1807 60.9406C11.1117 60.8861 11.043 60.8311 10.9748 60.7756M35.025 31.2242C36.0339 32.0441 36.9569 32.9668 37.7765 33.9746C38.4967 33.7828 39.2176 33.5968 39.9249 33.4208L35.025 31.2242ZM35.025 31.2242C35.2168 30.5038 35.4029 29.7826 35.5791 29.075C35.9572 27.5576 35.1521 25.9661 33.7058 25.367L33.7058 25.3669L30.0196 23.8401C30.0196 23.8401 30.0195 23.8401 30.0195 23.84C28.5732 23.2407 26.8782 23.7967 26.0725 25.1374L26.0725 25.1374C25.6964 25.7633 25.3179 26.4049 24.9448 27.0489C23.6515 26.9153 22.3465 26.9149 21.0545 27.048C20.6804 26.4023 20.3021 25.761 19.9273 25.1374L19.9272 25.1373C19.1213 23.797 17.4267 23.2408 15.9803 23.84C15.9802 23.8401 15.9802 23.8401 15.9802 23.8401L12.294 25.3669L12.2939 25.367C10.848 25.966 10.0425 27.5576 10.4207 29.075C10.5971 29.7837 10.783 30.5047 10.9745 31.2235C9.96684 32.0429 9.04403 32.966 8.22422 33.9749C7.50238 33.7827 6.78115 33.5967 6.07497 33.4208L35.025 31.2242ZM38.3864 54.2828L38.3862 54.2828C37.1453 53.949 35.8331 54.3853 35.0456 55.3972C34.2751 56.3868 33.3835 57.2785 32.3956 58.0478L32.3955 58.0478C31.3848 58.8351 30.949 60.147 31.2831 61.3872C31.4597 62.0432 31.6309 62.6983 31.7939 63.3413L29.0439 64.4803C28.7011 63.9049 28.3589 63.3206 28.0234 62.7375L28.0233 62.7375C27.3822 61.6241 26.1464 61.0054 24.8755 61.1628L24.8753 61.1628C23.6329 61.3171 22.3716 61.317 21.1274 61.1621L21.1273 61.1621C19.8533 61.0039 18.6183 61.6226 17.9772 62.7363C17.6381 63.3251 17.2957 63.9098 16.9561 64.4801L14.2062 63.3411C14.3699 62.695 14.5412 62.0395 14.7171 61.3863L14.7172 61.3863C15.0513 60.1453 14.6146 58.833 13.6028 58.0454C12.6133 57.2751 11.7216 56.3836 10.9522 55.3958C10.1651 54.3847 8.85319 53.9492 7.61268 54.2831L7.61264 54.2831C6.95963 54.4589 6.30438 54.6302 5.65862 54.7938L4.51953 52.0439C5.09266 51.7024 5.67714 51.3602 6.26235 51.0233L6.06276 50.6766L6.26235 51.0233C7.37565 50.3823 7.99517 49.1468 7.83717 47.8754L7.83716 47.8753C7.68262 46.6329 7.68297 45.3718 7.83754 44.1274C7.99609 42.8552 7.37723 41.6183 6.26313 40.977C5.67801 40.6401 5.09333 40.2978 4.5194 39.9557L5.65849 37.2058C6.30384 37.3694 6.9593 37.5407 7.61348 37.7167C8.85413 38.051 10.1664 37.614 10.9542 36.6025L10.9543 36.6024C11.7246 35.6128 12.6163 34.721 13.6039 33.9518C14.6149 33.1646 15.0506 31.8526 14.7165 30.6121L14.7165 30.612C14.5411 29.9608 14.3699 29.3057 14.2058 28.6582L16.9557 27.5192C17.2964 28.0911 17.6386 28.6754 17.9763 29.262L17.9763 29.2621C18.6173 30.3751 19.8539 30.9957 21.1244 30.8367C22.3663 30.6821 23.6273 30.6821 24.8726 30.8373L24.8726 30.8373C26.1456 30.9959 27.3817 30.3762 28.0227 29.2628L27.676 29.0632L28.0227 29.2628C28.3595 28.6777 28.7018 28.0931 29.0437 27.5192L31.7936 28.6582C31.6298 29.3048 31.4585 29.9603 31.2826 30.6132L31.2826 30.6132C30.9485 31.854 31.3852 33.1664 32.3969 33.954C33.3864 34.7243 34.2782 35.6159 35.0476 36.6036C35.8347 37.6145 37.1462 38.0501 38.3872 37.7162L38.3873 37.7162C39.0399 37.5404 39.695 37.3692 40.3411 37.2054L41.4801 39.9553C40.9076 40.2964 40.3232 40.6386 39.7373 40.976C38.624 41.617 38.0043 42.8526 38.1625 44.1241C38.317 45.3659 38.3168 46.6272 38.1618 47.8723C38.0036 49.1447 38.6227 50.3812 39.7364 51.0224C40.3207 51.3588 40.9054 51.7011 41.4801 52.0435L40.3413 54.7937C39.6944 54.6299 39.0388 54.4586 38.3864 54.2828Z" fill="#54A5E2" stroke="#54A5E2" stroke-width="0.8"/>
<path d="M19.0201 36.3915L19.0201 36.3915C13.722 38.5856 11.197 44.6792 13.3918 49.9762C14.4545 52.5415 16.4546 54.5406 19.0202 55.6032L19.0202 55.6033C20.3023 56.1341 21.6507 56.4 22.9999 56.4C24.3492 56.4 25.6976 56.1341 26.9799 55.6033L26.9799 55.6033C32.278 53.4091 34.8029 47.3157 32.6084 42.0186L32.2388 42.1717L32.6084 42.0186C30.4139 36.7216 24.319 34.1975 19.0201 36.3915ZM20.4492 39.8408L20.4492 39.8408C21.2813 39.4962 22.1428 39.3334 22.9908 39.3334C25.6092 39.3334 28.0967 40.885 29.1585 43.4473C30.5648 46.8416 28.9463 50.7478 25.5509 52.154C23.9054 52.8354 22.0952 52.8353 20.4491 52.154C18.8036 51.4725 17.5235 50.1926 16.8417 48.5474C15.4352 45.1532 17.0537 41.2468 20.4492 39.8408Z" fill="#54A5E2" stroke="#54A5E2" stroke-width="0.8"/>
<path d="M65.987 14.1519L66.0403 13.796C67.3876 13.9976 68.3998 15.1756 68.4 16.5392V19.4608C68.4 20.8245 67.3876 22.0023 66.0402 22.2039C65.6028 22.2694 65.1555 22.3331 64.7046 22.3945C64.4632 23.1473 64.1597 23.8796 63.7976 24.5828C64.0726 24.9442 64.3438 25.3058 64.6075 25.6623C65.4179 26.7579 65.3005 28.3067 64.3363 29.2708L62.2704 31.3364C62.2704 31.3364 62.2704 31.3365 62.2703 31.3365C61.3064 32.3006 59.7575 32.4178 58.6622 31.6074C58.3051 31.3432 57.9434 31.072 57.5826 30.7974C56.8793 31.1596 56.1469 31.4633 55.3943 31.7045C55.3329 32.1554 55.2692 32.6027 55.2038 33.04L55.2038 33.0401C55.0023 34.3879 53.8244 35.4 52.4609 35.4H49.5391C48.1756 35.4 46.9977 34.3876 46.796 33.0403L47.152 32.987L46.796 33.0403C46.7306 32.6029 46.6667 32.1556 46.6055 31.7045C45.853 31.4633 45.1205 31.1598 44.4171 30.7976C44.0563 31.0719 43.6948 31.3433 43.3375 31.6075C42.2421 32.4177 40.6934 32.3006 39.7294 31.3363C39.7294 31.3363 39.7293 31.3363 39.7293 31.3363L37.6635 29.2704C36.6992 28.3067 36.582 26.7577 37.392 25.6625L37.3921 25.6623C37.656 25.3057 37.9273 24.9443 38.2023 24.5827C37.8401 23.8794 37.5366 23.147 37.2953 22.3944C36.8443 22.3331 36.397 22.2692 35.9596 22.2038C34.6121 22.0021 33.6 20.8242 33.6 19.4607V16.5391C33.6 15.1754 34.6124 13.9976 35.9598 13.796C36.3972 13.7305 36.8445 13.6667 37.2955 13.6054C37.5368 12.8527 37.8403 12.1202 38.2024 11.4171C37.9272 11.0552 37.6559 10.6935 37.3925 10.3374C36.5821 9.24169 36.6997 7.69287 37.6639 6.72886C37.6639 6.72885 37.664 6.72884 37.664 6.72883L39.7296 4.66333C40.6935 3.6991 42.2422 3.58191 43.3378 4.39228C43.6949 4.65639 44.0565 4.92763 44.4174 5.20221C45.1206 4.83997 45.8531 4.53648 46.6057 4.2952C46.6671 3.84408 46.7308 3.39676 46.7962 2.95966L46.7962 2.95963C46.9977 1.61241 48.1756 0.6 49.5391 0.6H52.4609C53.8244 0.6 55.0023 1.61242 55.2038 2.95977M65.987 14.1519L54.8082 3.01893M65.987 14.1519L66.0403 13.796C65.6029 13.7305 65.1556 13.6667 64.7045 13.6053M65.987 14.1519L64.7045 13.6053M55.2038 2.95977L54.8082 3.01893M55.2038 2.95977C55.2038 2.95975 55.2038 2.95974 55.2038 2.95972L54.8082 3.01893M55.2038 2.95977C55.2693 3.39713 55.333 3.84439 55.3943 4.29534M54.8082 3.01893C54.8856 3.53582 54.9605 4.06683 55.032 4.60162M55.3943 4.29534C55.3122 4.26901 55.2298 4.24342 55.1472 4.21857L55.032 4.60162M55.3943 4.29534C56.147 4.53663 56.8794 4.84015 57.5827 5.2024M55.3943 4.29534C55.4058 4.37965 55.4171 4.46409 55.4284 4.54862L55.032 4.60162M55.032 4.60162L57.5827 5.2024M57.5827 5.2024C57.5148 5.25397 57.447 5.30565 57.3793 5.35743L57.6222 5.67526L57.8117 5.32304C57.7357 5.28213 57.6594 5.24191 57.5827 5.2024ZM57.5827 5.2024C57.9436 4.92797 58.305 4.6568 58.6623 4.39247L58.8834 4.69134L58.6623 4.39246C59.7576 3.582 61.3063 3.69926 62.2705 4.66353M57.5827 5.2024L62.2705 4.66353M62.2705 4.66353L61.9877 4.94639L62.2705 4.66357L62.2705 4.66353ZM64.7045 13.6053C64.4633 12.8529 64.1599 12.1203 63.7976 11.4171C64.0729 11.0551 64.3442 10.6936 64.6078 10.3374L64.6079 10.3373C65.418 9.24172 65.3006 7.69304 64.3365 6.72925C64.3364 6.72923 64.3364 6.72922 64.3364 6.7292L64.7045 13.6053ZM63.6737 18.8543L63.6738 18.8543C64.036 18.8071 64.3974 18.7579 64.7544 18.7073V17.293C64.3974 17.2424 64.0359 17.1933 63.6736 17.146C62.5645 17.0013 61.6542 16.2132 61.3578 15.137C61.1239 14.2886 60.7844 13.4692 60.3488 12.7022C59.7975 11.7314 59.8831 10.53 60.565 9.64324L60.5651 9.64321C60.7878 9.35365 61.0088 9.06306 61.2259 8.77428L60.2257 7.77402C59.9362 7.99168 59.6457 8.21266 59.3567 8.43476C58.4703 9.11644 57.2689 9.20288 56.2976 8.65102C55.5309 8.21552 54.7116 7.8759 53.863 7.64201C52.7869 7.34559 51.9987 6.43514 51.854 5.32591L51.8539 5.32586C51.8068 4.96381 51.7576 4.6025 51.7071 4.24556H50.2926C50.242 4.60265 50.1928 4.96405 50.1455 5.32633C50.0012 6.43526 49.2129 7.34555 48.1367 7.6421L63.6737 18.8543ZM63.6737 18.8543C62.5646 18.999 61.6542 19.7872 61.3579 20.8631M63.6737 18.8543L61.3579 20.8631M60.5652 26.3573L60.5652 26.3573C59.883 25.4702 59.7972 24.2688 60.349 23.2979L60.5652 26.3573ZM60.5652 26.3573C60.7876 26.6464 61.0086 26.9369 61.2258 27.2258L60.2257 28.2259C59.9363 28.0083 59.6457 27.7874 59.3571 27.5654C58.4701 26.8827 57.2684 26.7977 56.2976 27.3488L56.2975 27.3489M60.5652 26.3573L56.2975 27.3489M56.2975 27.3489C55.5307 27.7845 54.7114 28.124 53.8631 28.3579C52.7868 28.6544 51.9985 29.5648 51.8542 30.6738M56.2975 27.3489L51.8542 30.6738M51.8542 30.6738C51.807 31.0361 51.7579 31.3975 51.7073 31.7546H50.2928C50.2422 31.3976 50.1931 31.0362 50.1458 30.6742L51.8542 30.6738ZM48.1368 28.358L48.1368 28.358C49.213 28.6546 50.001 29.565 50.1458 30.6741L48.1368 28.358ZM48.1368 28.358C47.2883 28.1242 46.4694 27.7848 45.7023 27.3491C44.7314 26.7975 43.5297 26.8829 42.6429 27.5653C42.3541 27.7874 42.0636 28.0084 41.7741 28.226L40.7738 27.2257C40.9911 26.9368 41.2121 26.6463 41.4348 26.3568L41.4349 26.3567M48.1368 28.358L41.4349 26.3567M41.4349 26.3567C42.1166 25.4698 42.2024 24.2685 41.6507 23.2976L41.4349 26.3567ZM38.3259 17.1457L38.3258 17.1457C37.9636 17.1929 37.6022 17.2421 37.2452 17.2927V18.7071C37.6021 18.7576 37.9636 18.8067 38.326 18.854C38.326 18.854 38.326 18.854 38.3261 18.854L38.2743 19.2507L38.3259 17.1457ZM38.3259 17.1457C39.435 17.001 40.3455 16.2128 40.6417 15.1368M38.3259 17.1457L40.6417 15.1368M41.4346 9.64277L41.4347 9.64287C42.1166 10.5297 42.2024 11.7312 41.6506 12.7022L41.4346 9.64277ZM41.4346 9.64277C41.2119 9.35334 40.991 9.06288 40.7739 8.77424L41.774 7.77407C42.0635 7.99173 42.3539 8.21267 42.6426 8.43461C43.5292 9.11712 44.7307 9.20288 45.7022 8.65118L45.7023 8.65114M41.4346 9.64277L45.7023 8.65114M45.7023 8.65114C46.4688 8.21568 47.2881 7.87617 48.1365 7.64214L45.7023 8.65114ZM61.3579 20.8631C61.124 21.7119 60.7845 22.5311 60.3491 23.2978L61.3579 20.8631ZM40.6417 15.1368C40.8756 14.2882 41.215 13.469 41.6505 12.7022L40.6417 15.1368Z" fill="#54A5E2" stroke="#54A5E2" stroke-width="0.8"/>
<path d="M48.0671 17.9998C48.0671 19.6167 49.3833 20.9328 51 20.9328C52.6168 20.9328 53.9329 19.6167 53.9329 17.9998L48.0671 17.9998ZM48.0671 17.9998C48.0671 16.3829 49.3832 15.0669 51 15.0669M48.0671 17.9998L51 15.0669M51 15.0669C52.6168 15.0669 53.9328 16.383 53.9329 17.9998L51 15.0669ZM51 11.6C47.4708 11.6 44.6 14.4706 44.6 17.9999C44.6 21.5294 47.4706 24.4 51 24.4C54.5294 24.4 57.4 21.5294 57.4 17.9999C57.4 14.4706 54.5294 11.6 51 11.6Z" fill="#54A5E2" stroke="#54A5E2" stroke-width="0.8"/>
</svg>
