<svg width="70" height="70" viewBox="0 0 70 70" fill="none" xmlns="http://www.w3.org/2000/svg">
<path d="M52.6458 52.4H61.0208C65.0859 52.4 68.4 49.141 68.4 45.125V25.875C68.4 21.859 65.0859 18.6 61.0208 18.6H7.97917C3.91413 18.6 0.6 21.859 0.6 25.875V45.125C0.6 49.141 3.91413 52.4 7.97917 52.4H16.3542C17.3399 52.4 18.15 51.6106 18.15 50.625C18.15 49.6394 17.3399 48.85 16.3542 48.85H7.97917C5.88568 48.85 4.19167 47.1727 4.19167 45.125V25.875C4.19167 23.8273 5.88568 22.15 7.97917 22.15H61.0208C63.1143 22.15 64.8083 23.8273 64.8083 25.875V45.125C64.8083 47.1727 63.1143 48.85 61.0208 48.85H52.6458C51.6601 48.85 50.85 49.6394 50.85 50.625C50.85 51.6106 51.6601 52.4 52.6458 52.4Z" fill="#54A5E2" stroke="#54A5E2" stroke-width="0.8"/>
<path d="M24.4286 61.4H41.5714C42.5991 61.4 43.4 60.5303 43.4 59.5C43.4 58.4697 42.5991 57.6 41.5714 57.6H24.4286C23.4009 57.6 22.6 58.4697 22.6 59.5C22.6 60.5303 23.4009 61.4 24.4286 61.4Z" fill="#54A5E2" stroke="#54A5E2" stroke-width="0.8"/>
<path d="M24.4286 55.4H41.5714C42.5991 55.4 43.4 54.5303 43.4 53.5C43.4 52.4697 42.5991 51.6 41.5714 51.6H24.4286C23.4009 51.6 22.6 52.4697 22.6 53.5C22.6 54.5303 23.4009 55.4 24.4286 55.4Z" fill="#54A5E2" stroke="#54A5E2" stroke-width="0.8"/>
<path d="M24.5 49.4H30.5C30.982 49.4 31.4366 49.2703 31.7824 49.0398C32.1253 48.8112 32.4 48.4515 32.4 48C32.4 47.5485 32.1253 47.1888 31.7824 46.9602C31.4366 46.7297 30.982 46.6 30.5 46.6H24.5C24.018 46.6 23.5634 46.7297 23.2176 46.9602C22.8747 47.1888 22.6 47.5485 22.6 48C22.6 48.4515 22.8747 48.8112 23.2176 49.0398C23.5634 49.2703 24.018 49.4 24.5 49.4Z" fill="#54A5E2" stroke="#54A5E2" stroke-width="0.8"/>
<path d="M50.8143 20.5714C50.8143 21.5713 51.6079 22.4 52.6071 22.4C53.6064 22.4 54.4 21.5713 54.4 20.5714V9.14286C54.4 4.99451 51.1077 1.6 47.0357 1.6H21.9643C17.8923 1.6 14.6 4.99451 14.6 9.14286V20.5714C14.6 21.5713 15.3936 22.4 16.3929 22.4C17.3921 22.4 18.1857 21.5713 18.1857 20.5714V9.14286C18.1857 6.99131 19.8909 5.25714 21.9643 5.25714H47.0357C49.1091 5.25714 50.8143 6.99131 50.8143 9.14286V20.5714Z" fill="#54A5E2" stroke="#54A5E2" stroke-width="0.8"/>
<path d="M21.9643 69.4H47.0357C51.1026 69.4 54.4 66.0544 54.4 61.9545V39.4091C54.4 38.4147 53.6013 37.6 52.6071 37.6H16.3929C15.3987 37.6 14.6 38.4147 14.6 39.4091V61.9545C14.6 66.0544 17.8974 69.4 21.9643 69.4ZM18.1857 61.9545V41.2182H50.8143V61.9545C50.8143 64.0686 49.1142 65.7818 47.0357 65.7818H21.9643C19.8858 65.7818 18.1857 64.0686 18.1857 61.9545Z" fill="#54A5E2" stroke="#54A5E2" stroke-width="0.8"/>
</svg>
