<svg id="Слой_1" data-name="Слой 1" xmlns="http://www.w3.org/2000/svg" viewBox="0 0 962.08 918.88"><defs><style>.cls-1{fill:#c2e9fd;}.cls-1,.cls-10,.cls-11,.cls-12,.cls-13,.cls-14,.cls-16,.cls-17,.cls-3,.cls-4,.cls-5,.cls-6,.cls-7,.cls-8{stroke:#0a6daf;stroke-miterlimit:10;}.cls-2,.cls-5{fill:#53b7e8;}.cls-15,.cls-2,.cls-9{stroke:#0b6cae;}.cls-2,.cls-3{fill-rule:evenodd;}.cls-3{fill:#6dcff5;}.cls-4{fill:#52b9e6;}.cls-6{fill:#c6e8fa;}.cls-7{fill:#8dd8f8;}.cls-8{fill:#6dcff9;}.cls-9{fill:#8dd7f8;}.cls-10{fill:#1295d5;}.cls-11{fill:#8cd8f6;}.cls-12{fill:#53b7e7;}.cls-13{fill:#1095d4;}.cls-14{fill:#8dd8f9;}.cls-15{fill:#6ccff5;}.cls-16{fill:#0f96cf;}.cls-17{fill:#6ad1f5;}</style></defs><path class="cls-1" d="M537.6,691.78l-.58-12h0a11.83,11.83,0,0,0-2.54-1.27,4.35,4.35,0,0,0-3,.16,27.8,27.8,0,0,1-4.65,2,8.39,8.39,0,0,1-3.95.49c-1.35-.28-1.27-.83-3.25-.57-1,.13-.75.78-1.68,1.12-.09,0-.45,0-.59.17s0,.6-.19.65-.46-.23-.68-.27c-.64-.13-1.23-.73-1.82-.36-.31.2-.37,1-.69,1.17s-.32-.4-.65-.26-.47.59-.78.55c-.56-.06-.94-.47-1.47-.65-.25-.09-.67,0-.92-.1-.6-.22-.67-.48-1.3-.65-1.06-.28-2.19.81-2.86.59-.41-.14-.47-1.16-.9-1.13s-.32,1.06-.7,1.2c-.2.07-.16-.57-.32-.7s-.52.24-.71.15a3.71,3.71,0,0,0-.65-.27c-.48-.15-1-.14-1.5-.26-.27-.06-.57-.26-.84-.32-.46-.12-1.17-.26-1.63-.33l.19-.79.48-.12v-.69l-.56.08.24-1.78-.64,0-.32,2.57-.9.55c-.54.33-1.21-.28-1.84-.31a7.72,7.72,0,0,0-2.44.48c-.49.15-.86.28-1.37.4s-1.39.51-2,.24c-.32-.14-.4-.89-.74-1s-.51.33-.73.4-.62-.14-1.06,0a3.06,3.06,0,0,0-.74.27c-.17.12-.24.36-.43.43s-.33-.16-.48-.1-.43.36-.61.39-.45-.37-.68-.4c-.79-.08-1.37.26-2.1,0-.3-.12-.13-.78-.35-1s-.75-.06-.84-.45-.4-.48-.51-.68,0-.44-.12-.61-.47-.11-.57-.32,0-.65-.16-.94-.53.08-.67-.07,0-.72-.18-.8c-.47-.2-.81.17-1.28,0a3.15,3.15,0,0,1-1-.87,7.63,7.63,0,0,0-1-1.46.41.41,0,0,0-.62,0c-.24.21-.75.33-.82.69s.35.67.12.89c-.07.06-.4.35-.55.23s-.08-.46-.14-.61h0s0-.07,0-.07h0a.11.11,0,0,0-.1,0s0,0,0,0a2.34,2.34,0,0,0-.48.18,1.7,1.7,0,0,1-.22,0,3.92,3.92,0,0,1-1.22-.55,3.49,3.49,0,0,1-1.32-1c-.12-.14-.45,0-.68-.15s-.16-.62-.29-.64-.35.2-.55.24-.33-.29-.56-.39-.58,0-.81-.06c-.38-.18-.44-.34-.76-.61a3.73,3.73,0,0,1-.78-1c-.27-.58-.38-.83-.61-1.43a.28.28,0,0,0-.49-.08c-.19.31.3.78,0,.88s-.47-.19-.69-.19l-.92-1c-.32-.34.13-1.1.08-1.56s.17-.57-.24-.55-1.13,1.45-1.15,1c-.08-1.68-.59-1.12-1.17-1.71l.66-.88-.42-.31L459.13,667c-.28.27-.3-.8-.65-1s-.43.07-.65,0c-.4-.17-.68-.23-.86-.62s-.05-.76-.23-1.08-.74-.41-.86-.83.3-.55.36-.83.33-.59,0-.81a1.75,1.75,0,0,0-1.61.1c-.51-.76-1-1.15-1.51-1.18l-.24-1.19c-.06-.32-.59-.31-.8-.56-.63-.72-1-1.63-1.7-2.32-.31-.31-.93-.4-1.24-.71s0-.6-.26-.78-1-.06-1.41-.25-.75-.87-1.25-1-1.08.35-1.59.21a2.68,2.68,0,0,1-1.13-.34c-.32-.24-.41-1-.62-1.17-.45-.39-1.18-.35-1.62-.75a9,9,0,0,1-1-1.62,2.39,2.39,0,0,0-.87-.86c-.89-.35-1.83-.13-2.69-.54a2.09,2.09,0,0,1-.91-.95c-.1-.2-.67-.38-.59-.69s.44-.82.1-.95c-.14-.05-.38.16-.61.16s-.28-.25-.39-.2c-.32.14-.48.56-.71.47-.88-.31-2.34-1-2.33-1.88l0-4.56-.73-.35v4.21l-2.74-.35c-.46-.06-.1-.8-.39-1.17s-.82-.42-1.35-.46c-1-.07-1.68.42-2.64.25-.25,0,.05-.8-.21-.75a17.42,17.42,0,0,0-2.38.87,4.6,4.6,0,0,1-1.91.16,20.59,20.59,0,0,0-2.11-.78c-.61-.11-.29.22-.89.09a28.35,28.35,0,0,0-2.79-.79,12.29,12.29,0,0,0-2.24.25,4.43,4.43,0,0,1-2.78-.59c-.46-.35-.12-.81-.37-1.33a1.11,1.11,0,0,0-.92-.77c-.72-.14-1.42.16-2.15.08a6.4,6.4,0,0,1-3.13-1c-.35-.25,0-.86,0-1.29l1.72-.86v-1.94l.44-1.08-2.1-.71-.9,2.15c-.13.32.14.77-.13,1a2.73,2.73,0,0,1-1.75.77c-1.18-.13-2.25-.76-3.42-.92-.5-.06-.91.45-1.41.39a10.25,10.25,0,0,1-4.5-1.38c-.48-.3-.43-.92-.54-1.49a1.73,1.73,0,0,0-.54-.85c-.1-.11-.39-.15-.49-.3s-.17-.6-.4-.54c-.45.1-.12.55-.48.84-.11.09-.61.18-.66,0s.25-.42.19-.7c-.13-.54-.65-1-.3-1.44l.41-.51c.3-.36-.05-.68-.37-.4a3.68,3.68,0,0,1-1.79,1c-.57.1-.37.54-.57,1l-1.33-.52c-.23-.6.31-.88,0-1.43-.19-.3-.26.44-.6.56a1.26,1.26,0,0,1-1.25,0c-.28-.22-.33-.4-.62-.61-.84-.59-1.44-.55-2.29-1.13a9.4,9.4,0,0,1-2.91-3c-.28-.51.07-1.24-.17-1.77s-.51-1-1.12-1-.8.5-1.29.45-.75-.39-1.15-.47c-.56-.1-.61.47-1.11.19s-.43-1.19-.91-1.46c-.69-.39-1.38.08-2.13-.17-.4-.12-.64-.72-1-.84-1.17-.35-1.84-.05-3-.29-.28-.06-.27-.6-.54-.53-.52.13-.59.59-1.11.72-.25.07-.28-.17-.51-.29s-.51.06-.75,0c-.54-.14-.95-.43-.76-.86a2.13,2.13,0,0,0,.14-1.82c-.35-.56-.77-.3-1.43-.23-.84.08-.58.74-1,.89-.22.08-.29-.45-.5-.35s-.17.55-.47.66-.43,0-.72-.08a4.13,4.13,0,0,0-1,.14,1.26,1.26,0,0,1-.86-.08c-.33-.21-.31-.77-.65-1s-1-.07-1.43-.28-.87-.81-1.37-1-.89-.27-1.18,0,0,.46-.12.81c-.2.61-.75,1-1.27.48a106,106,0,0,0-5.37,9.73,51.39,51.39,0,0,1-3.59,9l-14.74-.75-7.22,13.81-10.07,18.14,2.87,2.53,6.16,7.85L334.09,663l1,2a6.39,6.39,0,0,0,2.81,2.38l2.91-.64-.47-1.39,1.73-.55,6.88,3,12.19,7.53-.85,1.57,1.56,4,.44,3.34,3.67,2.34,2.84-3.13.7-3.54c.09-.47.58-.62.9-.09l5.46,9.11a6.11,6.11,0,0,0-2,4.33c0,.53-.34.79-.64.77l-1,0,0,1.3.36,1,1.61.07.06,5.7c1.91.81,3.8,1.59,5.35,1.36l2.44-3.09L386.15,688c1.39,1.6,2.31,1.68,2.5.36l3.62.87-1.22,4.35,5.36,2,1.19-4,11.5,3.67-.47,2.28,14.43,5.39-7.82,20.41,5,.38,1.16,2.44,25.41-6.93.3-.77,3.2.81.55.14,6.49,1.93,1.89-1.1c.47-.29.29-1.17.72-1.53s.83.3,1.22.37.28,0,.5-.18c.49-.42.67-1.06,1.18-1.45a1.52,1.52,0,0,1,1-.33c.22,0,.31.47.51.54a.81.81,0,0,0,.84,0c.3-.2.22-.68.51-.9a1.67,1.67,0,0,1,1.22-.19c.55.15.8.77,1.35.91a19.68,19.68,0,0,1,2.06.21c.53.19.79.93,1.34,1,.28,0,.16-.63.42-.72a1.87,1.87,0,0,1,1.65,0c.33.24-.29.94,0,1.23a1.19,1.19,0,0,0,1.34.11c.56-.36.18-1.05.81-1.27.47-.16,1.26.41,1.37.89s-.58.15-.64.58a1.05,1.05,0,0,0,.36.75c.23.26.72.4.88.7s-.06,1.33.32,1.56.83-.58,1-.78c1.6-1.42,3.16-2.43,4.74-3.88l.62.12.9-.84.21-.56,10.9.82c1,.08-.24,1.13-.83,1.75-.36.39-.19.71-.47,1.16-.14.23-.11.69-.27.89s-.82.48-.79.76c0,.44.21.68.28,1.11,0,.17.38,0,.42.2a3.66,3.66,0,0,1-.27,1.21c-.1.39-.33.29-.52.41s-.82.07-.95.35c-.22.46,0,1.66-.3,2.06s-.3-.84-.62-.65a.82.82,0,0,0-.4.7c0,.36.54.75.31,1a2.67,2.67,0,0,0-.42,1.37c0,.5.24.51.27,1a10,10,0,0,0,.06,2.26,6.79,6.79,0,0,0,1,1.78c.12.16-.52.38-.56.58-.1.44.62.79.34,1.15s-1.21,0-1.57.42.33.58.2.86-.52.51-.62.74-.33.19-.2.48.22.21.36.41.12.71.3.81.47-.23.77-.06a2.31,2.31,0,0,1,.92.86,5.36,5.36,0,0,0,1.08,1.7c.57.49.93.22,1.52.68a3.55,3.55,0,0,1,.69,1.14,1.62,1.62,0,0,0,.52.64c.07.38.34.63.4,1,.52,0,.91.39,1.42.42.24.35.61.56.85.9,1.14.31,1.88.36,3,.67.34-.44.36-.44.71-.88a16.25,16.25,0,0,0,1.89-.64c.17.31.54.62.71.93,1.44.41,3.34,1.28,4.78,1.69l2.4,1.37.55-.75,3.53.32-1.62-19.42-.29-13.43,1.27-.37,11.1,5.45q-.18-1.06,3.54-1.11l.27-25.36,3.92-.93,3.75.93.47-1.08A3.21,3.21,0,0,1,537.6,691.78Zm-64.69-16.21-.08,0Zm-22.27,42.16c0-.29-.09-.59-.09-.87C450.55,717.14,450.61,717.44,450.64,717.73Zm18.63-32h0l1,.48Z" transform="translate(-66.38 -105.63)"/><path class="cls-2" d="M621.3,298.49l-11.57-3.71-3.34.1-7.8-6.68-7.18-4.62-47.48-20.77-16.71,15.3.07.12-.07-.12-.13.12-30-13.65,3-11.43-1.52-3.24-4.78-3.18,0-3.46a2.75,2.75,0,0,1-1.48-1.64l-1.89-4.09,1.07-2.58-.75-.94-1.17-.19-2.73-1.39-2.8,3.05,2.36,2.3c-.2.44-.14,1.2-.6,1.33s-.73-.87-1.23-.85c-.29,0,.26.63.09.88a.55.55,0,0,1-.72.06c-.35-.32-.24-1-.63-1.29-.54-.4-1.39-.2-2-.6-.2-.15.19-.54.07-.76a1,1,0,0,0-.73-.37c-.34,0-.68.36-1,.25s0-.48-.18-.63a2,2,0,0,0-.92-.35c-.27-.06-.66.19-.85,0s.27-.62.1-.85-1-.28-1.26-.66.2-.78,0-1-.88,0-1.2-.28c-.16-.13-.06-.46.06-.63s.69-.18.79-.47a.53.53,0,0,0-.4-.59c-.31,0-.58.44-.89.37s-.6-.41-.53-.69.62-.52.88-.82.56-.54.56-.89-.38-.51-.58-.39-.15.86-.49,1-.56-.47-.88-.43-.34.58-.63.63-.77-.11-.85-.41a1.46,1.46,0,0,1,.41-1.26c.2-.21.57-.07.85-.1s.61.17.73,0a2.17,2.17,0,0,0,.06-1.29c0-.29,0-.82-.29-.84s-.41.76-.78.77-.26-.53-.47-.73-.92-.21-.92-.57.75-.66.92-1.11c.06-.17-.16-.43-.35-.42s-.32.45-.57.45-.36-.25-.32-.43.56-.35.55-.63-.18-1-.57-1c-.79-.07-1.47.75-2.26.76a2.11,2.11,0,0,1-1.73-.73c-.22-.32.62-.62.56-1s-.56-.07-.76-.25-.06-.74-.34-.75-.34.55-.6.72a.43.43,0,0,1-.51,0c-.19-.22,0-.68-.21-.84s-.37.21-.48.38,0,.43-.1.52-.59.17-.74,0,.32-.67.09-.83-.5.35-.79.35-.42-.19-.37-.35c.09-.32.8-.42.69-.73s-.79-.28-1.14-.51-.23-.55-.48-.58-.61.52-.93.4-.24-.58-.31-.89.16-.82-.13-.91-.79.71-1.2.54.34-.66.2-.95c-.25-.47-1-.56-1.23-1-.14-.27.32-.58.25-.88s-.31-.55-.57-.53-.39.38-.44.63.42.74.16.85a2.38,2.38,0,0,1-1.3,0h0a2.46,2.46,0,0,0-.81,0c-.21,0-.46.25-.42.45s.59.28.64.56-.21.52-.44.65-.69.34-1,.17-.36-.83-.67-1.14c-.13-.13-.44-.23-.54-.08s.32.72.07.83-.64-.25-.78-.53.36-.08.37-.22c0-.47.1-1.62-.37-1.63l-2.61-.07-1.93-2L443.87,210l-3.31-3.4-2.26.19-1.8-1.13L433,204.28l-1.1,1.76h0l-14.17-6.37-.25-1.23-8.94-4,1.38-4.18-.72-4.57-5.48-.41-5.19.6-5.22.88a3.17,3.17,0,0,0-.34-1c-.12-.16-.43,0-.56-.17s-.17-.79-.49-.95a1.3,1.3,0,0,0-1.32,0c-.23.17.5.77.22.84s-.5-.55-.84-.67-.69.23-.89,0-.18-.74-.12-1.1.39-.34.38-.57a.47.47,0,0,0-.44-.38c-.22,0-.32.52-.53.42s.14-.48,0-.67a.59.59,0,0,0-.55-.22c-.42.06-.77.45-1.19.45a9.34,9.34,0,0,1-1.54-.45,9.92,9.92,0,0,0-2.43-.18c-.5,0-.91.54-1.41.53s-1.07-.47-1.64-.56-.94.24-1.34.16a.43.43,0,0,1-.23-.1c-.54-.43-.56-1.23-.66-1.92s.43-1.17.12-1.64c-.46-.7-1.29-.86-2-1.35a7.41,7.41,0,0,1-2.26-1.79c-.49-.8-.1-1.85-.64-2.61-.41-.6-1.39-.67-2.1-.82a9.05,9.05,0,0,0-3.18-.32c-.52.08-.84.66-1.32.85a4.51,4.51,0,0,1-1.8.38c-.68,0-1.52,0-2-.47a6.9,6.9,0,0,1-1.42-3.31l-.28-1.51h-.94a26.06,26.06,0,0,0-3.15-2.8,2.11,2.11,0,0,0-1.6-.09c-.44.15-.59.63-1,.76a2.76,2.76,0,0,1-1.86,0,5.19,5.19,0,0,1-1.79-1.51,14.54,14.54,0,0,1-2-2.83,2.14,2.14,0,0,1-.19-1.32c.12-.85.61-1.61.75-2.46a3.44,3.44,0,0,0-.19-1.7,18.52,18.52,0,0,0-1-1.73c-.11-.26.3-.69.12-.91s-.4-.17-.49-.26a3.45,3.45,0,0,0-.28-.23c-.27-.2-.42-.69-.68-.87-.57-.4-1.17-.51-1.29-1.19s-.45-1.09-.3-1.61.9-1.05,1.21-1.65c.19-.37.49-.88.25-1.22-.51-.74-1-1-1-1.44s-.48-.66-.89-.77c-.67-.2-1.44.12-2.1-.12-1-.37-1.71-1.26-2.69-1.66a3.45,3.45,0,0,0-1.63-.13c-.39,0-.73.36-1.12.39a12.29,12.29,0,0,1-3.09,0,1.43,1.43,0,0,1-1.08-.66c-.25-.49.2-1.16-.07-1.62l-1-1.74h0l0-.05,0,.05,0-.05-2.1-.59a4.93,4.93,0,0,1-2.91-2.29l-.73-1.16-2.69-4.26a1.76,1.76,0,0,1-.37-1.71l.51-2.65-1.81-1-5.59-4.93-10.1-8.18-5.71,2c-5.09,1.83-7.44.28-11.07-2.56a6.46,6.46,0,0,0-1.63-.17c-.59.08-1.07.62-1.66.63-1.24,0-3.06-1-4-.18l-2.25,1.93,2.08.68.53,3,0,1.73,2.38,3.66-2.46,1.73.3.9.25,1.94a17.9,17.9,0,0,1,3.48,3.76l-.79,3.35-5.33-1.35-4.76-4.51-.06-1.45a11.82,11.82,0,0,1-4.67-6.25l-1.49.19.5-2.1-1.57-2a60.4,60.4,0,0,0-7.93-1.17l-1.2.75-1.13-.87a.89.89,0,0,0-1.11.12c-.25.35-.33.82-.76.84a9.86,9.86,0,0,1-4.21-.62A9.74,9.74,0,0,1,249,114h0a11.55,11.55,0,0,0-1.46-1c-1.62-.84-3.34-1.46-5-2.14a56.39,56.39,0,0,0-7.25-2.78c-.28-.08-.89,0-1.16-.2a18.08,18.08,0,0,0-1.65-1.67l-1.3.58a14.34,14.34,0,0,1-2.68,2.32l-1.39,1.69,3.24,3.12-.34.48a1.16,1.16,0,0,0-1.69.26l-.6-.68a1.94,1.94,0,0,0-1.27,1.27l-1.95,4-1.37.12-6.42-4.75-1.15-1.45h-1.4L213,116.75l-3.48-.06-.56,1.66c-.84.23-1.35.14-1.52-.29l-3.78,3.49-3.42-4.13c-1.05-1.27-1.52-1-1.54.53l0,2.13-3,4.35-2.8-.19-2.91,2-2.28,5.85-1.2,1.86-3.42,2.47-.13,0h0l-21-8.14-9.11,1.41-1.69,4.25a58.78,58.78,0,0,1-8.91-4.9l-.93-2.35v-7.51l.69-.15-.1-3.22-.83-1.48-.37.8-2.64.14-.38,3.17L135,121l-5.46,2.63-7.26,7.55a3.05,3.05,0,0,0-.36-.36,2.11,2.11,0,0,0-.36-.27c-.4-.23-.77-.05-1.2-.11-.25,0-.19-.52-.32-.76s-.34-.2-.63-.35.13-.56.07-.84-.54-.41-.71-.7.21-.54.12-.79-.46-.36-.6-.61,0-.57-.19-.77-.46-.22-.57-.06.25,1.05-.1,1l-.56,0-5.09,3.88,1.15,1,3,1.08h0l-3-1.08-1.15-1-5.82,4.44-18,17.8h0l-.33.32L67.51,171.27c-.9.82-.93,1.68.57,2l8.37,2h3.21l4.6,1.7a9.59,9.59,0,0,1,1.82,3.2l-.36,1.24L88,183l3.35.25.74,1.65,6.48-1.65,1.11,4,.77.43a4.44,4.44,0,0,1-2,1.25l-5.09-.1h-5.6c-5.33,1-8,2.71-11.79,5.6l1,1.5.13,1.11,1-.06c.46,0,.76.54.31.6l-.51.07.1,1.32c0,.51.77.64.71.2l-.14-1.05c0-.29.5-.17.55,0l.2.82.51.64.57.23.41-.23.06-.51a1.45,1.45,0,0,0,.48.17c.15,0,.28-.16.44-.17s.28,0,.3.1c.12.56,0,1.16.1,1.73a.39.39,0,0,0,.34.27c.18,0,.29-.22.44-.31s.22-.22.34-.17a.84.84,0,0,1,.47.61,1.38,1.38,0,0,1-.1,1.18c-.2.24-.6-.11-.81.11s0,.47.2.6a.47.47,0,0,0,.51,0c.13-.07,0-.37.2-.4a2.39,2.39,0,0,0,.81-.17c.27-.16.34-.55.61-.71a.72.72,0,0,1,.61,0c.18.06.24.31.4.4a.54.54,0,0,0,.44.07c.31-.14.48-.49.78-.64a.49.49,0,0,1,.51,0c.24.21.2.67.47.84a1.12,1.12,0,0,0,.88,0,5,5,0,0,1,2.16-.27l.77.09L95,199.89l4.31-2.27,6.52-2.57,4.17-.35,6.41-.19,3.94-.52,1-.81,7.09-.23,1.35-.74,1.56-.38L130,188.77l1.34,3.06.95-.24.1.16,1.33-1.45a22.89,22.89,0,0,1,5.89-1,1.36,1.36,0,0,0,1.24-1.07l1.55-6.3,1.11-2.17,2.09-1.17,1.65.1c.55-.07.73-.66.55-1.36l1.74-1.63c.44-.42.76-.45,1.19,0l2.05-.34-.14-1.08a16,16,0,0,1-.37-2.27h0a16.26,16.26,0,0,0,.37,2.27l.15,1.08,1.52-.25.72-.81c.45-.51.82-.35,1.24.18l1.27-1c.81-.66,2.26-.32,4,.47l3.15.46c.8.11,2,1.09,2.57.47l1.34-1.38,2.48-1.07c1.71-2.95,6.3-2.06,8.47-1.38l8.08.52,1.14-.42c1.18.18,2.33.35,3.46.54h.08a59.62,59.62,0,0,1,8.16,1.89l2.26.34.73.63,2.06.49,3.51.09a46.32,46.32,0,0,1,7.34,5.24l2.85,1,3.29-.08.78.66.07-.18h0l-.07.18h4.19a6.65,6.65,0,0,0,3.12,1.34,15.46,15.46,0,0,1,3.89.92c3.06-.67,4.52-.48,6.44.77l.13,1.22.94,0-.07-1.22h3.77l1.9.7,2.45-.21a46.58,46.58,0,0,0,7.15,2.74,4.67,4.67,0,0,1,2.72.91l1.37.25.77-.2.51.38h1.53a11.25,11.25,0,0,1,3.33,1.51l1.28.12c.65.06.62-.65-.07-.71l-.38,0c-.64-.06-.57-.7,0-.87.37-.11.39.44.74.44l1.7,0a15.64,15.64,0,0,1,3.41,1l4.16,1,4.72.44.71.72h1.87l1.61,1.07a14.21,14.21,0,0,1,4.54,1.42l2.49.45,3,1.6,2.78.64,2.87,1.08,1.56.06,4.54,1.67a8.38,8.38,0,0,1,3.39.83l.42,0h0l2,.15a34.84,34.84,0,0,1,6.32,2.13l6.33,3c.87.42,1.47,1.29,2.35,1.68a11.56,11.56,0,0,0,3.36.47,9.55,9.55,0,0,1,4.4,2.52l4.75,3.77a5.76,5.76,0,0,1,2.12,1.37l.78,0,3.14,2.77a28.43,28.43,0,0,1,4,2.58l.46-.85-.46.84,1.38,1.12a9,9,0,0,1,2.61,1.8l-1,.92c-.56.53.3,1.32.92.57l1-1.24c.67-.83,2.13-.08,4.14,1.53a13.72,13.72,0,0,1,3.45,2.55l1.14,0,1.63.82a13.06,13.06,0,0,1,5.12,2.6l.73.21c3.43,2.45,5,.88,7.83-.88.83-.52,2.16-.32,3.25-.18a2.77,2.77,0,0,1,1.35.94l1.1.06a30.42,30.42,0,0,1,6,2.92,9.32,9.32,0,0,1,3.19,2.54l4.59,2.67,3.55,4,1.16.22,4.63,3.65a3.81,3.81,0,0,1,1.44.21h0a5.53,5.53,0,0,1,1.31.6,12.51,12.51,0,0,1,3.94,1.25c1.12.54,1.89,1.08,2.07,1.62l5.95,3.19,1.87,1.43,2.93,3.87,2.24,4.48,2.67,7.95,1.48,6.88,1.19,5.6.54.8,0,.49h0l0,1.64h0l.69,1.61.46,3.58a5.53,5.53,0,0,0,.59,2.84l.73,3.38,1.25.53a50.37,50.37,0,0,0,.77,7.31c-.29,3.94-.62,7.72-.63,10.84l-.34.65.24.73a11.87,11.87,0,0,1-.56,3.11,2.85,2.85,0,0,1-.63,1.94,2.36,2.36,0,0,1-.51,1.56l-.08,1.31c-.3,1-2.43,2.7-3.14,4.35l-.2,1.2-1.47,1.84a17.46,17.46,0,0,1-3.7,1.34,3.57,3.57,0,0,0-2,1.34,17.63,17.63,0,0,0-7.24,1.84c-1.24.73-1.9,2.43-1,3l3.07,1.95,4.17,1.9c.09.77-.5,1.48-.24,2.32.13.42.85.49,1,.84s-.43.47-.5.77c-.27,1.21.72.68,1.25.92.13.06-.22,1.26.67.61a17,17,0,0,1,1.57-1.27l2.47-.12-.49.45c-.41.39-.28,1,.54.75.18-.05.36-.2.56-.16s.35.38.58.38c.43,0,.87-.64,1.22-.41s-.42.46-.35.81.68.21.62.44-.76.18-.89.54.4.78.36,1.07c-.06.46-.81.82-.63,1.24s.81,0,.89.45c.45,2.45-1.19,1.6-1.95,2.36-.3.3-.15,1,.26,1,1,.12,1-.57,2-.54a1,1,0,0,1,.8.62c.22.4.59-.18.85.18s-.13.35-.22.72.12.6.35.62c.59.05,1.12-.52,1.7-.45.28,0,0,.78.31.72a4.93,4.93,0,0,1,2.54-.22c.92.34,1.1,1.33,2.05,1.82.18.32,0,.76-.18,1.07s-.94.38-.8.71c.23.55,1.84-.59,2.13.18s-.47.7-.66,1.15.23.59.06.74-.49-.29-.74-.15c-.94.52-1.62-.25-2.48.4-.45.34,1.54.06,1.24.53a2,2,0,0,1-2.23.62c-.47-.15.05-.32-.35-.61s-.67-.3-.8,0,.06.68-.23,1a2.47,2.47,0,0,1-1.64.8c-.33,0-.89-.3-1.21-.22s-.5.67-.89.76c-.65.14-1.49-.23-2.14-.18-.48,0-.28.46-.75.54s-.68-.32-1-.18a2.16,2.16,0,0,0-.9,1.07.81.81,0,0,0,0,.8c.51.56.59,1,1.25,1.38.46.26,1.3.07,1.78.31,1.18.59,2.11,1.7,3.3,2.27.7.34,1.92.41,2.59.81s.8.95,1.24,1.64c.19.3.08.78.36,1s.5-.2.75,0c.4.32.31,1,.76,1.21s.87-.25,1.29-.18a2.42,2.42,0,0,1,1.56.76c.76,1.12,2,2,2.36,3.34l.32,1.11,1.2,1.83-.05,1.51.85,2.9a13.11,13.11,0,0,0-.36,1.74c0,.79-.3,1.71.14,2.36.8,1.19,1.12.38,2.18-.31a.46.46,0,0,1,.56.15c.1.16-.18.38-.12.56a.46.46,0,0,0,.41.29c.21,0,.28-.49.48-.42a.55.55,0,0,1,.32.67c-.13.25-.62.08-.8.3a1.68,1.68,0,0,0-.38,1.16c0,.28.49.36.56.63s0,.56-.23.62c-.53.15-1.12-.25-1.64-.09a1.77,1.77,0,0,0-1.12.76c-.17.35.05.8-.18,1.11-.43.58-1,.88-1.47,1.43a.91.91,0,0,0-.09.89c.2.42.87.53,1,1s-.69,1-.54,1.47.94.2,1.11.53-.13.83,0,1.21.39.35.44.62l.27,1.25,1-.49,1.17.62.88-.18.94,1.07,1.16-.31,1.69-.67c.31-.12.71.34.76.67l1.06,8.55a12,12,0,0,0,1.88,4l9,7.53c4,3.31,8.24,7.41,10.87,15.6l7.08,3.92,2-3.61,5.35,3.46-.95,2.54,2.48,1.54-.27.74,11.48,6.39-3.59,6,7.19,2.92,4.8,1,9.44,3.48,5-1.82,2.71-35.12,21.36-4.22a50.38,50.38,0,0,0,8.06-3.32l21-1.12c-.15-.44,0-1-.46-1.14-1.19-.36-3.11-.37-3.41-2.24-.23-1.41-.15-2.47-1.12-3.63a8.44,8.44,0,0,1-1.71-2.13,4.7,4.7,0,0,1,.18-3.3c.46-1,2-.74,2.19-1.85.15-.72-.7-1.86-1.35-2.2-1.48-.76-2.52-.56-3.93-1.44a1.16,1.16,0,0,1-.26-1.41l.62-.75a5,5,0,0,0-.3-3.67,6.26,6.26,0,0,1,.75-3.59l1.8-1.81-1.14-2.43a1.88,1.88,0,0,0,.47-2.1l1-3.39-1.58-2.19-5-3.84-.09-4.35-4.6-4.16-2.74-3.77-3-1.39-6.61-12.83-5.63-6-6.3-3.27-6.32-5L535,340.5l-2.17-3.17h0l11-11.17L546,321l1.52.25,1.29.19.87-.25.26.64.6.1.78.55,1.35-.88,2.52,1.54,4.09.44,3.06-.69-.76-.6a1.35,1.35,0,0,1,.57-1.51c-.66-.07-1-.48-1-1.22a1.34,1.34,0,0,0,.32-1.68l-.82-1.69.44-.67.25-1.07a2.87,2.87,0,0,0,1.45-1.13l.54.44.32-.63,1.34-.19.35-.91.85.38,3.61,2.27,3.12-2.27.85.76,1.73-1.14,4.66,3.68,2.92-2.73a13.77,13.77,0,0,1,.91-6.39l-.47-.88.42-1.14,15.45,6.17,10,4.47,2.48-5-.25-.53,1-2.2,5.86,2.42,2.64.28c-.08-1.72.08-3.22,1-3.93l6-4.56Z" transform="translate(-66.38 -105.63)"/><path class="cls-3" d="M207.16,566.82a6,6,0,0,0,1.79-.31c.42-.15.64-.56,1.05-.74s.69,0,1.05-.1.61-.63,1-.77.74.15,1.05,0,.4-.44.61-.5c.41-.12.47.14.86,0l8.68-3.65c.76-.33,1.73-.61,1.79-2.1,0-1.16-.74-1.45-.47-2s1-.16,1.65-.08,1.52.07,1.8.74-1,.49-.89,1.37c.12,1.05-.29,2.64.17,3.58.83,1.71,3,2.22,5.4,2.76.37.08.71-.32,1-.46s.44.08.62-.16-.05-1,.23-1.37a.68.68,0,0,1,.85-.16c.15,0,0,.48.2.56s.83-.13.95.11a2,2,0,0,1,.17,1.42c-.14.27-.76.44-.7.73.09.44.37.45.81.48s.47-.46.6-.81,0-.57.2-.92a1,1,0,0,1,.84-.52c.21,0,.42.38.62.42a4.91,4.91,0,0,0,2.22.1c.26-.06-.09-.48.1-.69a3.28,3.28,0,0,1,1.22-.25c.46,0,.7.48,1,.84s.1,1,.6,1.31c.3.17.53-.41.87-.47s.26.26.5.33.73-.22,1,0,.64-.2.87-.13.25.56.49.56.59-.45.95-.43.84.84,1.26.63,0-1.38.55-1.47.13,1.36.61,1.19-.06-1.63.49-1.54.29,1.14.6,1.69c.1.16.66.2.79.34a12.63,12.63,0,0,0,.95,1.11,1.37,1.37,0,0,0,1,.17c.61-.21.91-.57,1.55-.65.32,0,.54.33.87.33s.58-.38,1-.33.79.53,1.37.51.9-.58,1.5-.58c.45,0,.49.5.91.65s.61-.15.94,0,.19.58.49.67.53-.28.88-.25.31.22.56.22.43-.36.7-.22c.66.34,1,1.15,1.37,1.78s.71,1.07,1.14,1.66a.79.79,0,0,0,.78.39,8.33,8.33,0,0,1,1.43-.49c.52-.06.57,0,.94.34.14.15,0,.55.23.59s.44-.19.68-.2a2.23,2.23,0,0,1,.88.29c.54.2.57.57,1.12.69s.48-.43.93-.37.67.53,1.14.59.43-.44.8-.44.26.35.64.44.5-.23.73-.13.2.78.59.69.23-.55.71-.74a1.19,1.19,0,0,1,1.31.16c.24.16.36.41.64.37.54-.08.72-.56,1.26-.58s1.05,1.25,1.58.94c.69-.41.16-1.74.73-2.31a1.33,1.33,0,0,1,1.55,0c.64.33.78.83,1.4,1.21.25.16.42,0,.51-.28.17-.61,0-.76.25-1.33a.81.81,0,0,1,1.09-.27c.32.19.11.67.45.79.52.17.95-.23,1.48-.12s.61.53,1,.64.61-.37.92-.15c.47.32.28.86.66,1.27.15.17.49.26.67.39.42.33.38.81.9.7.7-.14.57-1,1.19-1.32l2.21-1.22,1.08.18,5.18-1.85.53.94-6.3,2.1-2.42,1.37.42.52,2.31-1.1.42.68-1,.68,1.73,2.56,2.78,1.49,1.89-4.41.52-2.63,1.16.21L307.2,576l-2.18,4.6-2.34,2.74,1.05,1.09,1.13-1,.89.89c.6.61,0,1.52-1.16,2.39a1.8,1.8,0,0,1-.09,1c-.18.38-1.18.32-.95.67.68,1,1.45,1.09,2.34,1.9.26.23.71.91.62,1.25s-.4.31-.5.66a.9.9,0,0,0,.38,1c.48.28.83.55,1.31.26l.43-.26.3.79,2.79-4.52.44.32-.86,1.52c.24.28.29.76.63.91s.69,0,1,.09a10.87,10.87,0,0,1,3.55,2.14c.3.31-.53.81-.18,1.06s.61-.35,1.07-.12.27.87.43,1.22c.38.82,1.21,1.09,1.61,1.91.15.31-.24,1.25.1,1.35s.7-.72,1.15-.74a1.25,1.25,0,0,1,1.05.63c.2.33-.2.83,0,1.16s.58-.19.74,0-.3.61.08.82,1.3.07,1.81.23c1,.32.73.75,1.73,1.14a21.89,21.89,0,0,1,2.36.43c1,.66,1.35,1.88,2.42,2.39.76.36,1.4-.4,2.16,0,.38.18.18.93.39,1.29a3.32,3.32,0,0,0,1.65,1.51c1.26.44,2.77,0,4,.52.38.18-.47.7-.17,1s.65-.49.89-.18,0,1.13.36,1.54a4.47,4.47,0,0,0,2.34,1.39c.68.18,1.23-.17,1.9,0,1,.31,3,.86,3,1.94a2,2,0,0,0,.62,1.52v0a106,106,0,0,0-5.37,9.73,50.89,50.89,0,0,1-3.6,9l-14.73-.76-7.22,13.82-10.07,18.1-10.27-8.37-4.38,3.25-9.7.41-.83-4.33-9.83-1.55-1.78,2.5c-.28.39-.5.47-.67.07l-.53-1.31h-6.26l-5.75-4.41-.86-11.24-.17-10.67a112.85,112.85,0,0,0,9.83-7.32,26.63,26.63,0,0,1-3.79-11.92l-4.77-3.28-3.53-4.92-3.57-2.2-1.5.6c-3.16-1-6-3.18-8.72-4.44a75.93,75.93,0,0,0-10-4l-10.81-3.16a11.36,11.36,0,0,1-5.61-4.28l4.73-11.56a7.17,7.17,0,0,1-.38-2.74,5.57,5.57,0,0,1-1,0,3,3,0,0,1-1.19-.37c-.28-.18-.29-.64-.57-.8a10.81,10.81,0,0,0-4.12-1.31l-3.31-.07v-2Z" transform="translate(-66.38 -105.63)"/><path class="cls-4" d="M817.91,734.47l-12.19,1.72-32.63,10-25.78,7.92-7.76-36.5-1.13-6.8-8.83-38.48-2.37-6.06-3.55-12.18.47-7.34L722,636.23h-.78l-1-5.22-1.8-2.73.67-1.9-1.94-5.25c-.13-2.7-.19-4.18-1.49-6.58l5.86-4v0l0,.06a8.33,8.33,0,0,1,4.83.32l9.08,3.25,2.22.06H738l-.13.86c2.25,5.4,6.94,10.8,11.39,16.21l9.71,15.81,7.53,14.78a114.71,114.71,0,0,0,10.42,16.36A153.81,153.81,0,0,0,787,691.53l9.53,10.62,7.79,11.59-.64,1.1.22,1,1-.13L806,717.7l.85-.07,11,16.84Z" transform="translate(-66.38 -105.63)"/><path class="cls-5" d="M730.33,557.31a4.61,4.61,0,0,1,1.51.53l1.12.2a68.39,68.39,0,0,0,11.64-.17c1.83-.14,3.91-1.14,6.82-3.23,2.4-1.73,4.79-4.51,7.27-4.35,5.5.36,7.9,2.38,9,3.64l5.46-5.19,4.17-18.45,23.83-40.9L798,465l1.41-6a14.28,14.28,0,0,0-.69-7.71l1.39-18.68a6.14,6.14,0,0,0-1.41-3.89l-3.21-3.8-11.76-5.25,1.84-3.48-21.77-11.59,1-1.9-.58-.46.53-.85-.94-.6-8.24,16-10,21.12-.18,2.53,2.12,34.94-3.62,14.33c.38.64.15,1.28-.71,1.91l-.34,1.55a36.37,36.37,0,0,1-8.62,7.19l-3.2.07-.85,1.56h2.53l8.31,8.85,2.48,4.93,1.24,4.37-1,.34L740.55,518l-13.75,1.93,3.47,9,1.61,10a64.77,64.77,0,0,0,2,7.29L730.27,555l.06,2.33Z" transform="translate(-66.38 -105.63)"/><path class="cls-6" d="M724.78,555.89l-4.06,1.34-6.3,3.62L707.69,565l-5.54,2c-.25-2.2-1.46-1.93-2.92-2.08-3.38-.37-6.37-.73-9.75-1a34.49,34.49,0,0,1-6.71-3.82c-6-3.63-11.79-8.52-15.74-11.78a6.3,6.3,0,0,0-1.9-1c-3.88-1.35-6.84-1.65-10.75-3.19-4.55-1.8-8.51-4.77-10-7.79.34-.44-1.21-2.34-3.86-3.7l-10.64-5.51-1-3.16.54-4.16a6.35,6.35,0,0,1,1.41-3.12l2.46-3.38,1.4-.7,3.18,1.4a5.36,5.36,0,0,0,4.1-.1l6.43-2.56,9.35-1.25,7.36-.07a21.41,21.41,0,0,1,8.17,1.87,7,7,0,0,0,4.18.23c2.32-.42,4.62-1,7-1.24s4.9-.2,7.36-.3a12.58,12.58,0,0,1,4.73,1l5.83,2.16,4.56,1.75a23.58,23.58,0,0,1,4.16,1.91h0c.44.43.89.87,1.36,1.3,4.84,4.86,7.94,10.46,8.39,17.59l.75,11.61a9.24,9.24,0,0,0,1.58,4.46L724.3,555l.48.86Z" transform="translate(-66.38 -105.63)"/><path class="cls-7" d="M890.74,753c.48.23,2.51,1.42,2.67,1.56,2.55,2.16,4.92,4,7.54,6.09,1.15.91,2.81,1.57,3.75,2.71,1.77,2.15,2.81,4.82,4.3,7.18a26,26,0,0,0,3.65,4.71c1.21,1.21,2.74,1.59,3.9,2.85,3.85,4.15,7.29,8.88,10.71,13.38a22.54,22.54,0,0,0,16.13,9.15,27.1,27.1,0,0,1,10.3,2.26,67.83,67.83,0,0,1,7.44,4.8,13.72,13.72,0,0,0,2.23,1.41,35.06,35.06,0,0,0,6.88,2.1c1.23.24,3,0,4.21.5,2.85,1.1,4.82,3,7.59,4.26a14.23,14.23,0,0,0,8.12.89,82.74,82.74,0,0,1,8.74-1.07,15.49,15.49,0,0,1,5.71.64,28,28,0,0,1,6.59,3.41l-6.14,9.62-.91,3.14,5.73,2.17,4,6.33-2.43,7.69,4,4.42c3.64,3.28,7.66,2.43,11.17.64l1.12,2.77c.9,1.78-1.35,3.09-3.71,2.89-3.64-.32-6,3-3.22,6.26l2.43,2.84a9.51,9.51,0,0,1,2.4,4.09l-32.87-5.55H986l-6.59,2.93-10.38,17.61-1.15-.05-1.06,1.64.39.73,0,1.25.67.81-.14.85.39,1.45.71,1.17.1,1.28,1.31,2.4-6,1.1-22.49,3.11L930.8,881.88l-10.87.45L920,889l-7.61.38-6.67,2.17-11.32-.45-4.79-1.8-.42.23-4.83-.86,0-.86a22.18,22.18,0,0,1-6.75-6.33l-4.24-2.29.45-5.28.38-.72,1-3,.48-5.63-1.83-3.41.08-.89-23.13,1.31.49-6.71-7.94-4.63c-1.27-1.15-2.81-2.06-3.8-3.45a2.48,2.48,0,0,1-.24-2.2c.12-.32.74.39,1,.18s-.23-.67-.07-.94.94-.06.85-.35-1-.05-1.1-.42.4-1,.42-1.56c0-.34-.24-.63-.35-1,0,0,0-.08,0-.08-.4,0-.88.49-1.18.23a2.47,2.47,0,0,1-.66-1.82,1.47,1.47,0,0,1,.59-1.11c.2-.16.64.24.77,0s-.1-.92.14-1.28.71.07.9-.24-.16-1,0-1.51.81-.89,1-1.44-.44-1.2-.09-1.61.86.46,1.23.26.21-.74.34-1.1.79-1,.51-1.4-1.19.11-1.61-.22-.21-.76,0-1.06a4.72,4.72,0,0,1,1.53-1.23c.36-.22,1.15,0,1.19-.44.07-.69-.78-1.17-1-1.84-.07-.24.4-.51.25-.72s-.65.14-.81-.07a1.1,1.1,0,0,1,0-1,4.7,4.7,0,0,1,.94-1.15c.05-.06.19-.09.17-.16-.14-.49-.63-.89-.63-1.4,0-.3.34-.7.63-.63s.37.71.68.93a1.77,1.77,0,0,0,1.2.36,2.63,2.63,0,0,0,1.71-.87,1,1,0,0,0-.26-1.16c-.32-.29-1,.07-1.27-.24s0-.74,0-1.1c0,0,0-.06,0-.08a9.91,9.91,0,0,1,1.83-1.83c.22-.13.46.45.68.33a4,4,0,0,0,1.45-1.43,2.16,2.16,0,0,0,.29-1.25c0-.23-.15-.68-.36-.59-.6.28-.84,1-1.4,1.4-.12.07-.15-.24-.22-.37s0-.05,0-.07a3.82,3.82,0,0,1,1.1-2.57c.21-.29-.64-.28-1-.44-.57-.31-1,1.81-2,1.1-.43-.32,0-.73,0-1.27L832.76,801,830,798.21c-1.81-2-4-1.86-6.16-1.29l-6.37-4.5-14.29-13.26c.46-8.38-2.36-16.78-10.21-26.3l-6.14-2.62,1.54-3.53-4-1.67-1.83-1.75L777.14,745h0l28.58-8.76,12.17-1.72,0,0,23.51,35,.18-2.16,9-9.9c1.76-1.83,1.56-5.11.52-7.54,6.84,5.35,13.67,10.93,20.73,16,.34.24.9-.22,1.08-.59.27-.53-.41-.86-.19-1.41.13-.33.58-.13.66-.48a1.72,1.72,0,0,0-.27-1.22c-.42-.64-.35-.82.84-.53.57.13,1.16.81,1.72.64l1.49-.45.67-.56v-.11l-.22-.87,1.11-.6-1-1,0-1-.49-.45.87-1.12,1.67,1.24,1-1.24,4.43-1.28,1.54-3.49,0,0c1,.43,2.21.8,4,1.66Z" transform="translate(-66.38 -105.63)"/><path class="cls-8" d="M698.91,572.37h0l3.2,5.57L700,579.38l12,17.34,2.24-1.62,4,4.07.07,1.28,3.88,6.56,1.25,2-1.81,1-.1.54,0,.06a8.33,8.33,0,0,1,4.83.32l9.08,3.25,2.22.06,5.87-.18,18.07-5.71,6.86-4.1-4-4.87a10.58,10.58,0,0,1-2.13-5.25c-.65-3.56.27-5.84,1.57-8.36,1.55-3,3-4.83,3.6-8.71l2.13-14.26c.42-3-.17-6.57-2-8.77-1-1.25-3.4-3.35-9-3.72-2.48-.16-4.87,2.63-7.27,4.35-2.91,2.09-5,3.09-6.82,3.23a68.43,68.43,0,0,1-11.64.18l-2.63-.49c-2.89-1-4.2-2.15-5.61-1.6l0,0-4,1.32-6.3,3.62L707.69,565l-5.53,2c-.32,2.09-.84,3-3.25,5.31Z" transform="translate(-66.38 -105.63)"/><path class="cls-9" d="M620.72,310.12l13.67.85,8.42,3.13,4.88-3.41,8.41-1.42,4.93-2.94,7.15-3.29,4.89-3.26,3.46,2.38c1.82,1.25.86,4,1.6,5.6l-.46.92a11.85,11.85,0,0,1,3,4.71l.18,8.77,1.71,1.8,0,1.55h1l0,7.63,8.82,10.52a5,5,0,0,1,2.83.21l-.15,3.09,8.11,4.64,4.17-7.43L710,346l12.14,5.95L725,354c7.62-1.33,15.24-1.66,22.74-2.65l3.5,2.68,1.84,4.13,1.57,10.91,1.39,1.08,2,7.15,4.63,20.84-.65,1.69,1.86.9-8.24,16-10,21.12-.18,2.53,2.12,34.94-3.62,14.33c.38.64.15,1.28-.7,1.91l-.34,1.55a36.64,36.64,0,0,1-8.63,7.19l-3.2.07-.85,1.56h2.53l8.31,8.85,2.48,4.93,1.24,4.37-1,.34L740.55,518l-13.75,1.93,3.47,9,1.61,10a64.77,64.77,0,0,0,2,7.29L730.27,555l.06,2.58c-2.89-1-4.2-2.15-5.61-1.6l-1.6-3.52a9.24,9.24,0,0,1-1.58-4.46l-.75-11.61c-.5-7.78-4.13-13.73-9.75-18.89l6.47-5.59a3.67,3.67,0,0,1,.06-3.77l-2-10.79-.84-1.4,2-1.09a15.43,15.43,0,0,1-3.32-5.25l-16.93-72.16-1.84-7.62-14.47-25.73L642,407.66l-6-14.89-2.67,1.08a27.39,27.39,0,0,0-6.14-2.63l-4.6,2.46-1.84-4.07-44.45,20.32-.1-.08a5,5,0,0,0-.31-3.64,6.29,6.29,0,0,1,.75-3.6l1.8-1.8-1.14-2.43a1.88,1.88,0,0,0,.47-2.1l1-3.39-1.57-2.19-5-3.84-.09-4.35-4.6-4.16-2.74-3.77-3-1.39-6.61-12.83-5.63-6-6.3-3.27-6.32-5L535,340.5l-2.17-3.18,11-11.17L546,321l1.52.25,1.29.19.87-.25.26.64.6.1.78.55,1.35-.88,2.52,1.54,4.09.44,3.06-.69-.76-.6a1.35,1.35,0,0,1,.57-1.51c-.66-.08-1-.48-1-1.22a1.34,1.34,0,0,0,.32-1.68l-.82-1.7.44-.66.25-1.07a2.93,2.93,0,0,0,1.45-1.13l.54.43.32-.62,1.34-.19.35-.91.85.38,3.61,2.26,3.12-2.26.85.75,1.73-1.13,4.66,3.68,2.93-2.74a13.5,13.5,0,0,1,.91-6.38l-.48-.89.42-1.13,15.45,6.17,10,4.47,2.48-5-.25-.53,1-2.2,5.86,2.42,2.09.22.12,0v0Z" transform="translate(-66.38 -105.63)"/><path class="cls-10" d="M817.91,734.49l23.51,35,.18-2.16,9-9.9c1.77-1.83,1.57-5.11.52-7.54,6.85,5.35,13.68,10.93,20.74,16,.34.24.9-.22,1.08-.59.27-.53-.41-.86-.19-1.41.13-.33.58-.13.66-.48a1.72,1.72,0,0,0-.27-1.22c-.42-.64-.35-.82.84-.53.57.13,1.16.81,1.72.64l1.49-.45.67-.56v-.11l-.22-.87,1.11-.6-1-1,0-1-.49-.45.87-1.12,1.67,1.24,1-1.24,4.43-1.28,1.55-3.49-1.91-1.11a6.18,6.18,0,0,1-2.76-6.65l1-5.31c1.08-4.08-2.21-7.82-7-5.66l-7.94,3.56c-1.3.73-3,.44-4.47,0-3.25-.92-7.89-3-10.42-5.65-3.72-3.85-4.16-5.43-9.77-9.36-3.15-2.22-6.19-3-9.29-4a4.09,4.09,0,0,1-2.48-3.46c-.37-3.17.57-6.45,1.61-9.59a10.1,10.1,0,0,0,.15-5.61l3.15-1,.85,1.32,6.12-1.73-.39-1.31,10.5-2.84-14.27-36.29.26-.57-1.8-5.34-2.28-.79,9.43-61-30-4c-2.44-.33-6.13-3-8.59-3.07s-4.4.39-5.72,2.36l-12.85,19.14a10.54,10.54,0,0,1-3.69,3.88l-11.34,5.81-4.31-9-.21-.25h0l.22.26-6.86,4.1L743.55,614l-5.59.17-.13.86c2.25,5.4,6.94,10.8,11.39,16.21l9.71,15.81,7.53,14.78a114.71,114.71,0,0,0,10.42,16.36A153.81,153.81,0,0,0,787,691.53l9.53,10.62,7.79,11.59-.64,1.1.22,1,1-.13L806,717.7l.85-.07,11,16.86Z" transform="translate(-66.38 -105.63)"/><path class="cls-11" d="M799.83,431l.88-.51,2.65-1.57,3.33,4a2.85,2.85,0,0,1,2.86.2l1.28.37c.29-.16.59-.57.91-.64a13.34,13.34,0,0,1,1.89.05l1-.22-.12.89,2.07,2.86c.59.81-.07,2.49.85,2.88a12.17,12.17,0,0,0,1.79.76,6.33,6.33,0,0,0,2.24.28c.71-.07.87.55.54,1.49a3.11,3.11,0,0,1-1.11,1.51c-.44.33-1.1.3-1.49.68a6.23,6.23,0,0,0-1.43,2.22c-.26.67-.93,1.93-.24,2.15,1,.32,2.49.59,3.78,1,.3.1.29.58.12.85s-.64.27-1,.33-.76-.09-1.09.05a1.47,1.47,0,0,0-.6.7c-.15.28-.39.65-.23.92.34.57,1.35.66,1.52,1.3l.61,2.32c.16.6,1.26.52,1.53-.07a13.34,13.34,0,0,1,.74-1.58,3.22,3.22,0,0,1,2.62-1.22c.35,0,.92,0,1.1.3a2.94,2.94,0,0,1,.19,2c-.13,1,.17,1.61,1,1.6.57,0,1.13-.57,1.59-.22.64.48.51,1.54,1,2.17s.91.95,1.48.72c1.18-.46,3.17-3.45,4.14-3.37a1.32,1.32,0,0,1,1.06,1.15c.1,1.56,0,3.3.07,5.19a3.27,3.27,0,0,1-.84,2.43,8.16,8.16,0,0,0-1.41,3.33,4.33,4.33,0,0,0,0,2.23l1.87,7.54.79,1,2.37-1.31.87,2.14a4.55,4.55,0,0,1,3,1.79l.38-2.59,3.84,2.33-.64,3.21-1.1,1.45.11,2.06c-1.93.7-3.23,2.22-.86,2.9.59.17,0,.57.33,2.12a19.22,19.22,0,0,1,.7,3.25c0,.75-.54,1.46-.49,2.22,0,.32.41.52.69.69s1,.28,1.33.61a4.08,4.08,0,0,1,1,2.1c.07.6-.58.79-.59,1.4,0,2,.7,4.66.47,6.09l2,.86-.27.65,1,.45,1.07,2.43.95.15c5.13-3.82,10-8,15.38-11.48.41-.26.54.85.72,1.31s.66,1.13.22,1.15-.86.91-1.15,1.34,0-1.14-.83-.77c-.47.2.23,1,.3,1.54s-.73.68,0,1.2.58-1,1-.95a2.06,2.06,0,0,1,1.69,1.42c.17.46-.62.56-.93.94s.12,1-.29,1.42c-.24.26-.77.12-1.09,0s-.66-.93-1-.66-.57.26-.27,1.1c.11.29-.48.8-.51,1.11-.08.8.4.77.29,1.58a.68.68,0,0,1-.84.45c-.39-.18-.54-1.3-.75-.93-.39.68.52,1.46.11,2.14s-2.58,1.2-1.9,1.67c.47.33,1.18.23,2.1.52.47.14.38-.94.85-1.12a5.93,5.93,0,0,1,2.81-.06,9.59,9.59,0,0,1,3.11,1.25c.5.39-.07.78.48,1.1s1,0,1.51.19.95.86,1.61.91l1.59.11,2.26-1.1,1.19.23-3.25,2.61.19,1.32,2.55.38.57-1.89,1.79.66-.56,1.89,2.45,6.33-.85.66.38.85,2-1.32,5,4-2.62.17-2.46,1.16-4-.14-1.2,1.8-5.95-11.59-1.65.81h-2.06l-8.33,3.76-1.23-1.89-9.83,4.32-7.45,55.56-30-4c-2.44-.33-6.13-3-8.6-3.07s-4.39.39-5.71,2.36l-12.85,19.14a10.54,10.54,0,0,1-3.69,3.88l-11.34,5.81-4.31-9-4-4.87a10.51,10.51,0,0,1-2.13-5.24c-.65-3.56.26-5.84,1.57-8.36,1.55-3,3-4.83,3.6-8.71l2.13-14.26c.41-3-.17-6.58-2-8.77l-.07-.08,5.46-5.19,4.17-18.45,23.83-40.9L798,465l1.41-6a14.28,14.28,0,0,0-.69-7.71l1.39-18.68a12.09,12.09,0,0,0-.24-1.59Z" transform="translate(-66.38 -105.63)"/><path class="cls-12" d="M683.33,857.46,677.58,867l-1.2,5.37-1.06,1.15-.1,4.07L660.91,892l-.15,1.85-1,2.36,5.77,3.07L663,904.35l-5-2.46-1,2.91-4.67,8.13-1.81,2.26a27.35,27.35,0,0,1-3.26,7l-1,1.25-2,.76-2.51,1.6-6.58,5.73.3.4-4.56,3.46,1.35,2-4.07,3.46,3.77,5-6,2.71-8.59,15.61,7.78,7,4.52-5.72,8.68,5.72L629.84,981l4.72,3.06-.75,1.81,1.15,9,5.77,2.71,5.73,4.11-15.31,13.46,5.72,3.76,5.42,5,40.81-39.61,13.56,8.29h.9v-.39l0,.29,18.46-1.61-.19,2.87,10.77,8.63,11.32,1.22,3.5,3.41,2.82-1.19,4.48-4.33,1.2-.22,2.16,1.88,1.83-1.17,2.58.87,1.57,1.79-1.82,1,2.41,1.77,6.1-6.37-.47-1.24,3.58-3.77,2-2.2.59-2,.65-2.87.9-1.55-.12-2.14,8.51-.34c7.37,12.06,14.9,24,22.47,35.93.14.22.28-.5.52-.58s.65.21.92.06.27-.88.65-1,.49.57.83.6.78-.49,1.18-.4.75.76,1.24.92.9-.38,1.23-.14c1.05.77,1.55,2.16,2.6,2.93a1.74,1.74,0,0,0,1.5.06,2,2,0,0,0,1-.92c.22-.4-.19-1.11.19-1.36s1.3.39,1.82.07.53-1,.65-1.56-.31-1,0-1.37c.45-.51,1.39-.32,1.89-.78.3-.28.18-.8.25-1.2s-.12-.59.19-.81.83-.08,1.23-.19c1.32-.36,2.49-1.15,3.82-1.49.63-.17,1.36.27,2,0l4.88-2.2-.12-12.74-.52-5.88.05-14.73-9.16-2.28.91-5.26-.13-6L817.4,964l-2.2.53c-.81.2-2.11.68-2.28-.72l-.5-3.94L819.5,954l1.65-4.89,24.35-2.77,2.26-3.78-.43-3.59c-.69-.48-2.37-.86-2.08-1.43l2-4,1.85-1.28c-.46-1.73.06-3.73.81-6.08l3.06-.38,1.34-4,24.94,4.37,10.34-36.6-5.2-.93,0-.86a22.18,22.18,0,0,1-6.75-6.33l-4.24-2.29.45-5.28.38-.72,1-3,.48-5.63-1.83-3.4.08-.9-23.13,1.31.49-6.71-7.94-4.63c-1.27-1.15-2.81-2.06-3.8-3.45a2.48,2.48,0,0,1-.24-2.2c.12-.32.74.4,1,.18s-.23-.67-.07-.94.94-.06.85-.35-1-.05-1.11-.42.41-1,.43-1.56c0-.34-.24-.63-.35-1,0,0,0-.08,0-.08-.4.06-.88.49-1.18.23a2.47,2.47,0,0,1-.66-1.82,1.49,1.49,0,0,1,.59-1.11c.2-.16.64.24.77,0s-.1-.93.14-1.29.71.07.9-.24-.16-1,0-1.51.81-.89,1-1.44-.44-1.2-.09-1.61.86.46,1.23.26.21-.74.34-1.1.79-1,.51-1.4-1.19.11-1.61-.22-.21-.76,0-1.06a4.62,4.62,0,0,1,1.53-1.23c.36-.22,1.15,0,1.19-.44.07-.69-.78-1.17-1-1.84-.07-.24.39-.51.25-.72s-.65.15-.81-.07a1.1,1.1,0,0,1,0-1,4.89,4.89,0,0,1,.94-1.15c.05-.06.19-.09.17-.16-.14-.49-.63-.89-.63-1.4,0-.3.34-.7.63-.63s.37.71.68.93a1.77,1.77,0,0,0,1.2.36,2.62,2.62,0,0,0,1.71-.86,1,1,0,0,0-.26-1.17c-.32-.29-1,.07-1.27-.24s0-.74,0-1.1c0,0,0-.06,0-.08a9.91,9.91,0,0,1,1.83-1.83c.22-.13.46.45.68.33a4,4,0,0,0,1.45-1.43,2.16,2.16,0,0,0,.29-1.25c0-.23-.15-.68-.36-.59-.6.28-.84,1-1.4,1.4-.12.07-.15-.24-.22-.37s0-.05,0-.07a3.82,3.82,0,0,1,1.1-2.57c.21-.29-.64-.28-1-.44-.57-.31-1,1.81-2,1.1-.43-.32,0-.73,0-1.27L832.76,801,830,798.21c-1.81-2-4-1.86-6.16-1.29l-6.37-4.5-14.29-13.26c.46-8.38-2.36-16.78-10.21-26.3l-6.14-2.62,1.54-3.52-4-1.68-1.83-1.75-9.49,2.91-25.77,7.92L741.76,728h0l5.57,26.22-8.38,1.82c-2,.42-3.14,2.14-5,2.81a16.7,16.7,0,0,1-3.09.33c-1.24.18-2.3.66-3.52.88-2.07.36-2.54,1.53-4,2a12.27,12.27,0,0,1-1.36.13,3,3,0,0,0-1.84,1.2c-1.19,1.31-1.73,2.76-3,4-.58.58-2.11.58-2.71,1.13s-.84,1.77-1.48,2.35c-1.09,1-2.49.84-3.51,1.36-.35.17-.07.82-.36,1.08a7,7,0,0,1-3.16,1.77,12.26,12.26,0,0,1-3.63,0v39.76l5.44,6.59,3.72,1.93L707.8,835.6l-2.54-1.16L689.41,862l-6.08-4.57Z" transform="translate(-66.38 -105.63)"/><path class="cls-13" d="M618.91,779.6l42.94,14.47.79-7,3-1.13,5.47-.77,4.25,5.55.33,2.34-9,11.35-4.25,5.86,2.15,1.85-4,4.06-.88-.34-6.18,3.68-1.36,2.13-5.6,5.57a2.69,2.69,0,0,0-2.41.69L689.4,862l15.86-27.59,2.54,1.16,3.62-12.19-3.72-1.93-5.44-6.59V775.13a12.26,12.26,0,0,0,3.63,0,7,7,0,0,0,3.16-1.77c.29-.26,0-.91.36-1.08,1-.52,2.42-.37,3.51-1.36.64-.58.83-1.78,1.47-2.35s2.14-.56,2.72-1.13c1.25-1.25,1.79-2.7,3-4a3,3,0,0,1,1.84-1.19,12.27,12.27,0,0,0,1.36-.13c1.48-.48,2-1.64,4-2,1.22-.22,2.28-.7,3.52-.89a15.88,15.88,0,0,0,3.09-.32c1.88-.67,3.07-2.39,5-2.81l8.37-1.82-7.76-36.61-1.13-6.8-8.83-38.48-2.37-6.06-3.55-12.18.47-7.34L722,636.23h-.77l-1-5.22-1.8-2.73.67-1.9-1.94-5.25c-.13-2.7-.19-4.18-1.49-6.58l-8.85,5.84c-1.45.07-2.26.64-2.15,2l-.25,16.58-16.73-.18-3.33,19.92,3.82,0a10.84,10.84,0,0,0-4.86,8.46l-2.82,24.55c1.15,7.72-1.1,15.2-4.91,22.56l-11,12.17-.12,0L647,745.76,640.61,759l-10.47-1-5.26,15.79-2.83.69L611,771.65l-.89,2.87,3,1.29,3,2.78,3,.94-.06.07Z" transform="translate(-66.38 -105.63)"/><path class="cls-5" d="M706.81,620.38c-1.44.07-2.26.65-2.15,2l-.25,16.58-16.92-.18,1.21-7.2c.31-1.72-.25-2.95-1.76-2.86a15.82,15.82,0,0,1-7.77-1.49,6.1,6.1,0,0,0-2.58-.36c-1.86,1.73-4.05,4-5.4,3-.76-.59-.91-.55-1.31-.15l-2.81-1.2-2,.63c-1.2.38-.3,1.85-2.81,2.84-1.59.63-2.92-.79-4.5-1a3.84,3.84,0,0,0-2,.55l-1.81-1.65,2.76-3,4.59-8.33,1.53-5.55-.11-3.79,3.1-5.46a10.56,10.56,0,0,0,1.57-1.14l2.25-5.59c1-6.53,5.32-11.81,8.4-13.49a51.91,51.91,0,0,1,6.55-2.6,46.54,46.54,0,0,0,14.35-8.55l0,0,3.2,5.57L700,579.38l12,17.34,2.24-1.62,4,4.07.07,1.28,3.88,6.56,1.25,2-1.81,1-.11.58-5.8,3.93-8.91,5.88Z" transform="translate(-66.38 -105.63)"/><path class="cls-5" d="M590.34,658.74l-5,6.36-7.26,7.21-4.8,9.15-4.46,2.31-5.64,0a2.44,2.44,0,0,0-2.13,1.25c-1.12,0-1.1-.34-1.45.54-.16.39.14.77-.14,1.08a1.33,1.33,0,0,1-1.11.35c-.43-.06-.74-.9-1.11-.68s-.23.84-.62.86-.23-.63-.85-.95c-.87-.46-1.28.08-1.34-.71l-.15-1.83-1.11-.65,0-3.15-1.41,0a7.68,7.68,0,0,0-1,3.51c-.36.56-1,.86-1.35.28-.45-.79-.4-1.61-1-1.08-.42.36-.74.06-.46-.37.47-.76.31-1.2-.71-1.48-1.19-.16-2,.17-2.31,1a2.82,2.82,0,0,0-3.17-.67l-2.07-2.14c-.43-.45-.89-.27-1.44.11l-1.17.81.58,12a3.21,3.21,0,0,0,2,3.07l-.47,1.07-3.75-.92-3.92.92-.27,25.37c-2.48,0-3.66.39-3.55,1.11L516.51,717l-1.27.37.29,13.43,1.62,19.42,6.26.07,4.61,1.83,9.85-4.34L556,761.5l-3.2,6.77-13.27,1.82.29,6.87c0,.63,0,1.55-.71,1.88a10.62,10.62,0,0,1-5.46.64,51,51,0,0,0-.73,15.46l-.85,2.68.73,2.23c.35,1.09-.3,1.47-.93.52l-.78-1.15-2.83,1.06-3.23,2-3.72.87.7,6.41-13.44,9-7.06,3.8-1,.13-9.79,3,.06,2.54,10.61-.83c.68-.06.77,0,.77,1.6l1.9-.07c-.06,2.51.85,5,.78,7.53l5.65.7.33,1.11,1.27.06-.07,1-3.83-.2-.8,5.21,3.34,3.75,3.21,2.54-10.3,8.4L497.9,868l.73,1.79-3.54,5.06-1.27.14.42,2-3.45,5.75.8,1.75-1.43,6.33-5.49-2.17-2.86,4.28,4.5,3.25,6.27-2.18,3.29,7.44,13.43-5.33,1.72-.92.53,1.78,4,.25c3.05,10.07,8.14,17.5,13.72,25.36l6.31.31,2.13,1.36,2-.41-.75,2-.12,2.34c.39.28.52,1,.38,2.14l2.55-.08,1.2-1,.12,2.9c.06,1.47.63,1.65,2.11,1.27l5.37-1.36c.43-1.15,2-1.86,3.63-3.14s1.73-3,1.55-4.79a6.3,6.3,0,0,0-.57-2.69L553,917.64l1.34-5.26L547.8,912l-1.48-2.18-2.12.68-3.52-6.1.7-.5v-2.27l-2-4.83-1-9.38L536.3,879l.88-.57.82-3.83-.56-.16.76-5.49-.76-.34,1.77-4.18,1-.33,4.15-4.68c2.58-2.92,2.74-9.49,1.71-14.7a21.8,21.8,0,0,1,.62-10.83l-.12-3.75,18,2.33,9-14.8-5.47-4.21,2.8-4.86-.58-.7,5.13-8.82c1.08-1.86.08-3.78,3-5v-3.54l1.27-3.39-.42-.58,1-1.33-3.59-2.1L572.61,790l-1.54-.63-4.72,7-1.87-1-.45.77-1.35-.65-3.85,6.28-2.68-1.49,16.61-26.11,5.15,3.76,2.53-3.39,12.25,7.75,2.31,4-1.42,2.62,2,1,5-.42,7.55-4.3,6.05-3.15a8.77,8.77,0,0,0,4.78-2.46l-3-.94-3-2.78-3-1.29.89-2.87,11.08,2.78,2.83-.69L630.14,758l10.47,1L647,745.76l17.59-19.53-1.78.91-24.47,10.77c-10.6,4.67-25.62,6.68-38.56,4.53a90.12,90.12,0,0,0,6.13-10.81l18.52-25.09,17.6-22.23-7.4-1c-7,.09-14.95-1.72-18.63-7.28a1.4,1.4,0,0,0-1.65-.63l-1,.48L600.79,661l-4.3-4.46-6.15,2.2Z" transform="translate(-66.38 -105.63)"/><path class="cls-14" d="M664.76,604.21c-2.08,2.48-9.72,3.56-16.55,3.26L627,606.54l-5.2,10a8.17,8.17,0,0,0-.8,2.2l-2.37,11.65-14.93,10.07-11.73,4.64L536.53,619.9l-.07,1,4,6.94,5.44,2.66,3.16-.59,41.4,18.65,6,8,4.3,4.46,12.54,14.89,1-.47A1.4,1.4,0,0,1,616,676c3.68,5.56,11.63,7.37,18.63,7.28l7.4,1-17.6,22.23-18.52,25.09a90.12,90.12,0,0,1-6.13,10.81c12.94,2.15,28,.14,38.56-4.53l26.19-11.53,11-12.17c3.81-7.36,6.06-14.84,4.91-22.56l2.82-24.55a10.84,10.84,0,0,1,4.86-8.46l-3.82,0,3.14-19.92,1.21-7.2c.31-1.72-.25-2.95-1.76-2.86a15.82,15.82,0,0,1-7.77-1.49,6.1,6.1,0,0,0-2.58-.36c-1.86,1.73-4.05,4-5.4,3-.76-.58-.91-.54-1.31-.14l-2.81-1.2-2,.63c-1.2.38-.3,1.85-2.81,2.84-1.59.63-2.92-.79-4.5-1a3.9,3.9,0,0,0-2,.55l-1.8-1.65,2.76-3,4.59-8.33,1.53-5.55-.11-3.79,3.09-5.46-1,.45Z" transform="translate(-66.38 -105.63)"/><path class="cls-15" d="M452,410.73l0,.82-6.07,7.75-1.93.13.22,1.5.77.38.21,2.24,5.24-.73.34,2.57-4.83.86,2.72,16.91-.68,3.66c-1,1.79,1.25,2.64,5.31,2.75l3.27-1.35c1.67-.78,2-.72,1.1.18a8.32,8.32,0,0,1-2.85,1.47l-.07.71c-.56.29-1.11.3-1.67.86l-1.27-.11-.73-.91a5.05,5.05,0,0,0-2.75,1.83l1.28.61-.91.3-.92.92c-.31.3-.56,1.06-.18,1.28l1.18.69.23,1.84.54.82-2,1.83c-.52.47-.09,1,.45.58l2-1.71.87.23,2.46,1,.38.82,1.92.43.17.82.66.19.55.62,1.07.09.52.87.5.66,1.84.43.54.84h1.42l3.51,2.06,4.82,2.84,1.89,1.24,3.45,1.51,1.76,3.15c2.12,0,2.68,1,5.74-.1l-.21,1.42.73.89.51-.91,2.68,1.55a3.89,3.89,0,0,1,2.4,1c2.18-.28,4.29-.73,5.91-.24l1.64-.94c2.16,1.22,3.58,1.33,7.88.89,2.57-1.15,3.4-1.55,5.84-.39.46.23,1,.11,1.52.28s.76.62,1.23.71.94-.46,1.31-.22l1.7,1.12,3.24.17,4.16,1.16,8.59,3.75a21.1,21.1,0,0,1,6.71.86l4.72,2c-.14.27-.41.51-.41.82a1.81,1.81,0,0,0,.58,1.22c.31.31.75.25,1.12.48.12.08.37.28.36.42s-.41.28-.41.42c0,.76.58.62.81.4s.14-.93.48-1.17a1.18,1.18,0,0,1,1.22-.12l3.5,2.4c1.52.24,3,.6,4.57.73a16.25,16.25,0,0,0,1.68-.18c.58,0,1.15.16,1.73.11s1.41-.55,2.13-.45a14.11,14.11,0,0,1,2.93,1.17,30.15,30.15,0,0,0,3.28,1.23,3.05,3.05,0,0,0,1.88.13c.29-.12.56-.36.87-.37s.81.33,1.23.36,1-.23,1.49-.19a6.63,6.63,0,0,1,1.48.45c.54.19,1,.48,1.6.63a9.45,9.45,0,0,0,2.71.58c.65,0,1.19-.68,1.85-.69s1.41.6,2.15.64c.46,0,.85-.45,1.31-.43a10.48,10.48,0,0,1,3,.57c.54.18.86.93,1.42.93a9.28,9.28,0,0,1,2.17,0c.43.11.64.68,1.07.79l1.5.39,0,2.61,3,.75c.06-.45-.1-1,.16-1.37a1.46,1.46,0,0,1,1.13-.46,20.8,20.8,0,0,1,3.77.33c.49.08.9.51,1.4.53s.83-.51,1.27-.45,1,.64,1.53.83a1.14,1.14,0,0,0,.94,0l1.15-.72a23.87,23.87,0,0,1,0-3.05,2.52,2.52,0,0,1,.59-1.28,1.12,1.12,0,0,1,1-.47c.39.08.62.52.83.86.1.15-.06.38.05.52l3.23,4.32c1.43-.15,2.51,1.32,3.54,3.42a3.88,3.88,0,0,1,1.89,1.93l3.85,1.14,1.71.42-.77,1.46c.73-.1,1.82.59,3.36,1.21l1.72-.87,1.08-.33a3.39,3.39,0,0,1,.88-2.15c.55-.54,1.1-.47,1.65.22,0,.73.86,1.42,1.81,1.84l3.18,1.41a5.36,5.36,0,0,0,4.1-.11l6.44-2.56,9.34-1.25,7.36-.06a21.4,21.4,0,0,1,8.17,1.86,7,7,0,0,0,4.18.23c2.32-.42,4.62-1,7-1.24s4.9-.2,7.36-.3a12.58,12.58,0,0,1,4.73,1l5.83,2.16,4.56,1.75a23.58,23.58,0,0,1,4.16,1.91l6.49-5.6a3.65,3.65,0,0,1,.06-3.76l-2-10.8-.84-1.4,2-1.09a15.34,15.34,0,0,1-3.32-5.25l-16.93-72.16-1.84-7.62-14.47-25.73L642,407.66l-6-14.89-2.67,1.08a27.86,27.86,0,0,0-6.14-2.63l-4.6,2.47-1.84-4.08-44.46,20.33-.1-.06-.62.75a1.16,1.16,0,0,0,.26,1.41c1.41.88,2.45.68,3.93,1.44.65.34,1.5,1.48,1.35,2.2-.23,1.11-1.73.81-2.19,1.85a4.7,4.7,0,0,0-.18,3.3,8.44,8.44,0,0,0,1.71,2.13c1,1.16.89,2.22,1.12,3.63.3,1.87,2.22,1.88,3.41,2.24.44.13.31.7.46,1.14l-21,1.12a49.44,49.44,0,0,1-8.06,3.31l-21.36,4.23-2.71,35.12-5,1.82-9.45-3.48-4.79-1-7.19-2.92,3.59-6L498,455.75l.26-.74-2.47-1.54.95-2.54-5.35-3.46-2,3.61-7.08-3.92c-2.63-8.19-6.91-12.29-10.87-15.6l-9-7.53a12,12,0,0,1-1.88-4l-1.06-8.55c-.05-.33-.45-.79-.76-.67l-1.69.67-1.16.31-.94-1.07-.88.18-1.17-.62-.87.43,0,0Z" transform="translate(-66.38 -105.63)"/><path class="cls-16" d="M698.88,572.39a46.35,46.35,0,0,1-14.34,8.55,51.91,51.91,0,0,0-6.55,2.6c-3.08,1.68-7.38,7-8.4,13.49l-2.25,5.59c-1.3,1.07-2.45,2.08-6.65,2.25a62.93,62.93,0,0,1-12.77-6.76l-2-2.78-.71.67L644,595l.15-.65-4-2.47-3.17-2.69L632.29,588c-1.51-.32-3.59-2.59-4.2-4l-4-9.38-2.66-8.25a5.42,5.42,0,0,1,0-3.1c.94-4.43,1.49-9.24,3.23-12.36l.86-.15,1.54-5.09c1.1-3.65,5.73-6.11,12.18-7.85,1.48-.4,3,.55,5.15-1.31,1.57,3,5.5,5.93,10,7.71,3.91,1.55,6.87,1.84,10.75,3.19a6.3,6.3,0,0,1,1.9,1c4,3.27,9.71,8.15,15.74,11.78a34.49,34.49,0,0,0,6.71,3.82c3.38.29,6.37.65,9.75,1,1.24.13,2.49-.24,2.94,2-.32,2.13-.84,3-3.29,5.37Z" transform="translate(-66.38 -105.63)"/><path class="cls-17" d="M204.78,411.58c.89,0,1.87.08,2.74.16.62.06.87.92,1.44,1.19.41.19.93-.05,1.35.11a2.38,2.38,0,0,1,1,.83c.17.24-.05.67.18.87a8.52,8.52,0,0,0,2.22,1.21l1.92.82a7.76,7.76,0,0,1,3.17-.16c.86.27.9,1.64,1.79,1.73,1.86.2,3.9,1.06,5.91.9.76-.07,1.07,1.1,1.74,1.46.15.08.29-.35.45-.28.78.39,1.3,1.24,2.11,1.56.43.17.94-.32,1.39-.19s.38.63.69.8a.75.75,0,0,0,.75,0c.23-.14.16-.55.37-.72a1.62,1.62,0,0,1,1-.37c.2,0,.24.43.39.3s0-1,.34-.94a17.18,17.18,0,0,0,2.38,0c.4,0-.2.85,0,1.19s.62,0,.82.18-.05.67.19.83.77-.2,1.07,0-.05.71.21.82.72-.44,1-.28.11.8.42,1,1-.11,1.46.14c.25.15-.1.74.16.85.64.26,1.54-.37,2.08.07a7.13,7.13,0,0,0,2.85,1c.44.11.16.89.12,1.33,0,.23-.4.45-.27.64.22.36.39.52.82.5s1.27-.87,1.74-.59a25.52,25.52,0,0,0,2.65,1.55c.58.27.63,1.13.82,1.74.09.29-.16.65,0,.91s.41.54.59.35c.37-.4.16-1.3.6-1.63s1,0,1.37.19c.58.32.82,1.17,1.46,1.37.29.09.25-.66.55-.73a1.34,1.34,0,0,1,1,.36c.26.17.29.69.59.71s.55-.72.87-.59c.83.32,1.2,1.38,2,1.71s1.84,0,2.74.18c.37.08.63.42,1,.48.79.13,1.5-.27,2.24,0,.4.15.48.87.78,1.17a5.45,5.45,0,0,0,1.74,1.28c.45.18,1.27-.45,1.46,0l.48,1.12c2.5-1.77,5.05-3,7.56-3h5.4l1.18-6.13c.48-2.46,3.32-4.21,5.85-5v-.7a7.35,7.35,0,0,1,3.2-1.1,2.15,2.15,0,0,1,2.28.55c.67.76.14,1.39-.68,1.48-.45.06-.79-.43-1.23-.38s-.68.27-1.17.45-1.06.25-1.57.46c-2.42,1-4.81,1.82-5.49,5l-3.93,18.73a7.12,7.12,0,0,0,1.39-.09c.63-.16,1.17-.85,1.81-.73s.85.77,1.1,1.28a1.52,1.52,0,0,1,0,1c-.13.43-.87.8-.64,1.18.31.53,1.31.2,1.73.64.28.29-.3.63-.13,1a2.15,2.15,0,0,0,1,1c.5.13.43-.62.86-.33s0,.47.24.82.35,0,.59.22c.38.4.81,1.26,1.05,1.48s1.14-.4,1.55-.09.15.82.55,1.11a3,3,0,0,0,1.83.42c.31,0-.12-.65.18-.71a4.23,4.23,0,0,1,3.25.18,2.75,2.75,0,0,1,.77,2.42c0,.44-1.05.59-.73.89.54.51,1.63.15,2.2.62s.61,1.52,1.05,2.22c.25.4.48,1,1,1s.45-.83.82-1.09a.34.34,0,0,1,.52.06c.17.19-.12.73.12.67.59-.16.85-1,1.39-1.24a.74.74,0,0,1,.8.14,1.19,1.19,0,0,1,0,1.1c-.12.27-.78.24-.73.55.08.48.89.46.87.95s-.88.93-1,1.51a2.4,2.4,0,0,0,.64,1.78c.17.22.73.26.82,0,.23-.66-.47-1.37-.09-2,.27-.41,1-.21,1.46,0,.2.09,0,.46-.09.64s-.71.28-.64.55c.17.6.89.91,1.19,1.46a2.33,2.33,0,0,1,.14,1.31c0,.48-.61,1.14-.23,1.43a23.78,23.78,0,0,0,3.56,2.74c.83.42,1.82,0,2.57.53s.63,1.35,1.16,1.9c.71.73,1.79,1.07,2.55,1.76s.95,1.34,1.67,1.85c.44.31,1,.58,1.47.27l1.74-1.19.74.72-.2.47-.64-.27-1.64,1.13,1.19,1.06v1.61l-.63,1.6,1.28,4.29,3.19,1.45-.38.32-.95,0-.24.5.83.63.34-.45.5.27-1,1.09-2.28-2-.19.19.74,1.18-.64.37-1.43-1.88-1.32,0-2.28-1.74-1.19,1.74-1-.11,0,.69,1.27.24-.36,1.65,1.28.73v.82l-.71.81-.11,1.93-.83.46.36,1.81-.63,0-.55-2-4.57.55-.56.36,3.85,6.31,1.19.64.73.36-1.83,2.1-2.19.65-1.83.91-.09.73-1.28.55-.46-1.1.19-.64-3.2-6-.73-.09-.46-.91.09-.64L306.78,501l-.67.06-.19-.86-2.15-1a2.83,2.83,0,0,1-1.92.27,1.42,1.42,0,0,1-.46-1.37L299,496.93l-1.46.54-.64-1.46-2.28-1.09-1.38.45v-1.28l-3.36-1.46.07-6.55-.91-.68,0-.86,1.18-1.05.36-3.53-1.1-.49a4.09,4.09,0,0,1-1.1-2.1c-.05-.22-.46.26-.64.14s0-.64-.2-.7c-.39-.11-.76.35-1.15.32s-.54-.46-.87-.5-.5.38-.75.28l-1.75-.68-4.51,5.43,1,.83-.54.87c-.86.24-1.28-.25-1.91-.78-.37-.31-1.16.82-1.44.23-.19-.39,0-1.2-.58-1.71-.29-.26.49-.69.88-.74s.68.45,1.07.48l1.25.09,2.91-3.69,0-.89-2-1.38a7.53,7.53,0,0,1-2.31-.91c-.29-.25-.23-.81-.09-1.17a4.18,4.18,0,0,1,1.28-1.92,1.34,1.34,0,0,1,1.37,0l1.74,1,.65.06.73-.91.07-.9-.67-1.08v-1.29l-1.21-1.33-.85.3-1.46-.52a9.73,9.73,0,0,0-1.65-1.56c-.17-.1-.34.37-.53.3-.36-.11-.5-.59-.84-.74s-.69.19-.91,0a29.56,29.56,0,0,1-2.93-2.65c-.19-.23,0-.58-.14-.84a2.17,2.17,0,0,0-.95-.9c-.31-.13-.7.13-1,0s-.23-.5-.46-.64a7.39,7.39,0,0,0-2.19-1c-.34-.07-.65.35-1,.31-.5-.05-.89-.53-1.39-.57-.19,0-.21.45-.4.43-.5,0-.91-.49-1.41-.53a.94.94,0,0,0-.82.36c-.24.35,0,.9-.27,1.25l-6.41,9.28a9,9,0,0,1,.27,1.54,2.33,2.33,0,0,1-.28,1.46c-.24.29-.83-.08-1.1.18a.7.7,0,0,0,0,.92c.6.41,1.41.33,2,.68a1.61,1.61,0,0,1,.93,1,1.52,1.52,0,0,1-.32,1.22c-.11.16-.59,0-.75-.09-.38-.25-.32-.73-.72-1-.57-.32-1.4-.09-1.82-.59l-.82-1-1.83,4.66-3.2-1,2.66-6.22-2.11,1.29c-.67.41-1.5-.24-.56-.92l2.12-1.55,1.05-1.58.11-2.4-.89-4.25-.91-4.11-1.28-2.7-.92-5.35-.47-.17c.28-.87-.32-1.94-.63-2.72l-1.91-3.32a22.2,22.2,0,0,0-2.46-4.95c-1.06-1.58-2.21-3.15-3.39-4.65a14.85,14.85,0,0,0-1.9-2.27c-.3-.26-.76-.1-1.12-.29a1.23,1.23,0,0,1-.55-.73c-.1-.32.22-.75,0-1s-.86,0-1.09-.27.12-.85-.1-1.19a2,2,0,0,0-1.27-.91c-1.75-.24-3.57.1-5.31-.24-.55-.11-.65-.7-1.09-1-.25-.2-.76,0-.92-.28s0-.78-.13-1.17a2.62,2.62,0,0,0-1-1.19c-.21-.13-.51,0-.73-.1s-.61-.48-.84-.45c-1.29.17-3.23,1.45-4.09.48a26.88,26.88,0,0,0-3.21-3.6,2.15,2.15,0,0,0-1.64-.18c-.46.08-.8.85-1.22.66-.69-.32-.8-1.31-1.34-1.85a2.66,2.66,0,0,0-1.19-.64,1.94,1.94,0,0,0-1.46,0c-.28.19.1.64-.11.9s-.65.54-.86.29a2.55,2.55,0,0,1-.68-2.19c.31-.92,1.64-1.2,2-2.12.19-.52-.36-.93-.87-1.13-.88-.34-1.4,0-2.36-.23-.3-.06-.41-.9-.1-.89Z" transform="translate(-66.38 -105.63)"/><path class="cls-7" d="M806,953.31l-4.25-10.63-9.83-3.19v-7.44H778.62v19.4l-14.35,9.83v9.56l-14.08-.26-4.52,1.86-8.23-4-9.57,9.83h-12v10.36l-.8,2.23.93-.08-.19,2.87,10.77,8.63,11.32,1.22,3.5,3.41,2.82-1.19,4.48-4.33,1.2-.22,2.16,1.88,1.83-1.17,2.58.87,1.57,1.79-1.82,1,2.41,1.77,6.1-6.37-.47-1.24,3.58-3.77,2-2.2.59-2,.65-2.87.9-1.55-.12-2.14,8.51-.34c7.37,12.06,14.9,24,22.47,35.93.14.22.28-.5.52-.58s.65.21.92.06.27-.88.65-1,.49.57.83.6.78-.49,1.18-.4.75.76,1.24.92.9-.38,1.23-.14c1.05.77,1.55,2.16,2.6,2.93a1.74,1.74,0,0,0,1.5.06,2,2,0,0,0,1-.92c.22-.4-.19-1.11.19-1.36s1.3.39,1.82.07.53-1,.65-1.56-.31-1,0-1.37c.45-.51,1.39-.32,1.89-.78.3-.28.18-.8.25-1.2s-.12-.59.19-.81.83-.08,1.23-.19c1.32-.36,2.49-1.15,3.82-1.49.63-.17,1.36.27,2,0l4.88-2.2-.12-12.74-.52-5.88.05-14.73-9.16-2.28.91-5.26-.13-6L817.4,964l-2.2.53c-.81.2-2.11.68-2.28-.72l-.5-3.94,3.33-2.75Z" transform="translate(-66.38 -105.63)"/></svg>