<?xml version="1.0" encoding="utf-8"?><svg viewBox="0 0 70 70" xmlns="http://www.w3.org/2000/svg" xmlns:xlink="http://www.w3.org/1999/xlink"><style>:root>svg{display:none}:root>svg:target{display:block}</style><svg fill="none" viewBox="0 0 70 70" id="benefits-item-icon-1" xmlns="http://www.w3.org/2000/svg"><path d="M52.773 31.445a2.734 2.734 0 100-5.468 2.734 2.734 0 000 5.468z" fill="#54A5E2"/><path d="M59.063 5.469h-3.555V2.734a2.734 2.734 0 10-5.469 0V5.47H37.598V2.734a2.734 2.734 0 10-5.47 0V5.47H19.825V2.734a2.734 2.734 0 10-5.469 0V5.47h-3.418C4.907 5.469 0 10.375 0 16.406v42.657C0 65.093 4.907 70 10.938 70h20.917a2.734 2.734 0 100-5.469H10.938a5.475 5.475 0 01-5.468-5.469V16.407a5.475 5.475 0 015.468-5.468h3.418v2.734a2.734 2.734 0 105.47 0v-2.735h12.304v2.735a2.734 2.734 0 105.469 0v-2.735h12.441v2.735a2.734 2.734 0 105.469 0v-2.735h3.554a5.475 5.475 0 015.47 5.47v15.585a2.734 2.734 0 105.468 0V16.406c0-6.03-4.907-10.937-10.938-10.937z" fill="#54A5E2"/><path d="M53.457 36.914c-9.122 0-16.543 7.421-16.543 16.543S44.335 70 53.457 70 70 62.579 70 53.457s-7.421-16.543-16.543-16.543zm0 27.617c-6.106 0-11.074-4.968-11.074-11.074s4.968-11.074 11.074-11.074 11.074 4.968 11.074 11.074-4.968 11.074-11.074 11.074z" fill="#54A5E2"/><path d="M57.422 50.723h-1.23v-2.871a2.734 2.734 0 10-5.47 0v5.605a2.734 2.734 0 002.735 2.734h3.965a2.734 2.734 0 100-5.468zM40.879 31.445a2.734 2.734 0 100-5.468 2.734 2.734 0 000 5.468zM28.984 43.34a2.734 2.734 0 100-5.469 2.734 2.734 0 000 5.469zM17.09 31.445a2.734 2.734 0 100-5.468 2.734 2.734 0 000 5.468zM17.09 43.34a2.734 2.734 0 100-5.469 2.734 2.734 0 000 5.469zM17.09 55.234a2.734 2.734 0 100-5.468 2.734 2.734 0 000 5.468zM28.984 55.234a2.734 2.734 0 100-5.468 2.734 2.734 0 000 5.468zM28.984 31.445a2.734 2.734 0 100-5.469 2.734 2.734 0 000 5.47z" fill="#54A5E2"/></svg><svg fill="none" viewBox="0 0 70 70" id="benefits-item-icon-2" xmlns="http://www.w3.org/2000/svg"><path d="M62.5 7.5H55v-5a2.5 2.5 0 10-5 0v5H20v-5a2.5 2.5 0 10-5 0v5H7.5A7.5 7.5 0 000 15v47.5A7.5 7.5 0 007.5 70h55a7.5 7.5 0 007.5-7.5V15a7.5 7.5 0 00-7.5-7.5zm2.5 55a2.5 2.5 0 01-2.5 2.5h-55A2.5 2.5 0 015 62.5V30h60v32.5zM65 25H5V15a2.5 2.5 0 012.5-2.5H15v5a2.5 2.5 0 105 0v-5h30v5a2.5 2.5 0 105 0v-5h7.5A2.5 2.5 0 0165 15v10z" fill="#54A5E2"/><path d="M51.706 35.732a2.5 2.5 0 00-3.473 0L30 53.965l-8.233-8.233a2.5 2.5 0 00-3.534 3.535l10 10a2.5 2.5 0 003.535 0l20-20a2.5 2.5 0 00-.062-3.535z" fill="#54A5E2"/></svg><svg fill="none" viewBox="0 0 70 70" id="benefits-item-icon-3" xmlns="http://www.w3.org/2000/svg"><path d="M34.563 69.125C15.985 69.125.874 54.014.874 35.437.875 16.863 15.986 1.75 34.563 1.75c18.575 0 33.687 15.111 33.687 33.688 0 18.575-15.111 33.687-33.688 33.687zm0-63.164c-16.255 0-29.477 13.222-29.477 29.477 0 16.254 13.222 29.476 29.477 29.476 16.254 0 29.476-13.222 29.476-29.477 0-16.254-13.222-29.476-29.477-29.476z" fill="#54A5E2" stroke="#54A5E2"/><path d="M49.487 53.375a2.143 2.143 0 01-1.512-.616l-14.973-14.7a2.081 2.081 0 01-.627-1.484v-19.6c0-1.16.958-2.1 2.139-2.1 1.18 0 2.139.94 2.139 2.1v18.73l14.345 14.083c.836.82.836 2.15 0 2.97a2.143 2.143 0 01-1.511.617z" fill="#54A5E2" stroke="#54A5E2"/></svg><svg fill="none" viewBox="0 0 70 70" id="benefits-item-icon-4" xmlns="http://www.w3.org/2000/svg"><g clip-path="url(#dclip0_165:187)" fill="#54A5E2" stroke="#54A5E2" stroke-width=".5"><path d="M67.95 7.987H2.05a2.3 2.3 0 00-2.3 2.301v12.356a2.3 2.3 0 002.3 2.3H3.87v34.768a2.3 2.3 0 002.3 2.3h57.662a2.3 2.3 0 002.3-2.3V24.945h1.818a2.3 2.3 0 002.301-2.301V10.288a2.3 2.3 0 00-2.3-2.3zm-6.42 49.424H8.47V24.945h53.06V57.41zm4.118-37.068H4.352V12.59h61.296v7.754z"/><path d="M30.881 41.42h8.238c3.54 0 6.42-2.88 6.42-6.42s-2.88-6.42-6.42-6.42H30.88c-3.54 0-6.42 2.88-6.42 6.42s2.88 6.42 6.42 6.42zm0-8.238h8.238A1.82 1.82 0 0140.937 35a1.82 1.82 0 01-1.818 1.818H30.88A1.82 1.82 0 0129.064 35a1.82 1.82 0 011.817-1.818z"/></g><defs><clipPath id="dclip0_165:187"><path fill="#fff" d="M0 0h70v70H0z"/></clipPath></defs></svg><svg fill="none" viewBox="0 0 69 69" id="benefits-item-icon-5" xmlns="http://www.w3.org/2000/svg"><path d="M44.731 37.946h0l.43 1.035a3.2 3.2 0 01-1.299 3.946c-.624.376-1.265.754-1.91 1.128a18.967 18.967 0 010 3.89c.642.373 1.284.751 1.91 1.128l-.205.343.206-.343a3.2 3.2 0 011.297 3.946h0l-1.527 3.687-.285-.119.285.119a3.2 3.2 0 01-3.708 1.873c-.708-.176-1.429-.362-2.149-.554a18.98 18.98 0 01-2.75 2.752c.192.724.378 1.445.554 2.148m9.151-24.979l-7.104 19.626a18.575 18.575 0 01-3.055 3.056c.216.806.424 1.611.62 2.394a2.8 2.8 0 01-1.639 3.242l-3.686 1.527a2.8 2.8 0 01-3.451-1.134c-.42-.7-.842-1.416-1.255-2.131m19.57-26.58l-1.098-2.652h0a3.2 3.2 0 00-3.708-1.873l4.806 4.525zm-9.151 24.98l-.375.093.375-.094s0 0 0 0zm0 0a3.2 3.2 0 01-1.874 3.707h0L30.02 68.16h0a3.2 3.2 0 01-3.947-1.297h0c-.377-.628-.756-1.27-1.127-1.911m0 0l.262-.029-.046-.397m-.216.426a19.001 19.001 0 01-3.89 0c-.376.648-.755 1.289-1.128 1.91h0a3.2 3.2 0 01-3.948 1.298h0l-3.686-1.527a3.2 3.2 0 01-1.873-3.708h0c.176-.707.362-1.428.554-2.15m13.97 4.177l-.13-.226.346-.2m0 0a18.592 18.592 0 01-4.321 0c-.418.722-.84 1.439-1.255 2.13a2.8 2.8 0 01-3.451 1.134l-3.687-1.527a2.8 2.8 0 01-1.638-3.242c.196-.787.404-1.592.62-2.394m-10.22-7.76a2.8 2.8 0 011.134-3.451c.697-.419 1.413-.84 2.131-1.255L1.21 52.866zm0 0l1.527 3.686a2.8 2.8 0 003.242 1.638M1.21 52.866l4.77 5.325m-1.93-10.246c-.645.374-1.286.752-1.912 1.128h0A3.2 3.2 0 00.84 53.019h0l1.527 3.687a3.2 3.2 0 003.708 1.873s0 0 0 0l-.097-.388m-1.93-10.246l4.175 10.08m-4.175-10.08a18.974 18.974 0 01.001-3.89c-.644-.373-1.285-.752-1.912-1.128h0A3.2 3.2 0 01.84 38.98h0l1.527-3.686h0a3.2 3.2 0 013.708-1.873L4.048 47.945zm1.93 10.246c.787-.196 1.592-.404 2.394-.62m0 0l-.314.248.165.206m.15-.453l.103.386a113.3 113.3 0 01-.253.067m.15-.453a18.574 18.574 0 003.056 3.055m-3.206-2.602a18.974 18.974 0 002.752 2.75m.454-.148l-.387-.104-.067.253m.454-.15l-.248.315-.206-.165m24.05-29.552a18.966 18.966 0 012.752 2.75c.72-.191 1.44-.377 2.148-.553l-4.9-2.197zm0 0c.192-.72.378-1.441.554-2.149a3.2 3.2 0 00-1.873-3.708h0L30.02 23.84s0 0 0 0a3.2 3.2 0 00-3.947 1.297h0c-.377.626-.755 1.268-1.128 1.912a18.966 18.966 0 00-3.89-.001c-.375-.646-.753-1.287-1.128-1.91h0a3.2 3.2 0 00-3.947-1.298s0 0 0 0l-3.686 1.527h0a3.2 3.2 0 00-1.873 3.708c.176.709.362 1.43.554 2.149a18.956 18.956 0 00-2.75 2.75c-.723-.191-1.444-.377-2.15-.553l28.95-2.197zm3.361 23.059h0a3.177 3.177 0 00-3.34 1.114c-.77.99-1.663 1.882-2.65 2.65h0a3.176 3.176 0 00-1.113 3.34c.177.656.348 1.311.51 1.954l-2.75 1.14c-.342-.576-.684-1.16-1.02-1.743h0a3.177 3.177 0 00-3.148-1.575h0a15.201 15.201 0 01-3.748 0h0a3.176 3.176 0 00-3.15 1.573c-.339.59-.681 1.174-1.02 1.744l-2.75-1.139c.163-.646.334-1.302.51-1.955h0a3.177 3.177 0 00-1.114-3.34 15.19 15.19 0 01-2.65-2.65 3.176 3.176 0 00-3.34-1.113h0c-.653.176-1.309.347-1.954.51l-1.14-2.75c.574-.34 1.158-.683 1.743-1.02l-.2-.346.2.346a3.176 3.176 0 001.575-3.148h0a15.205 15.205 0 010-3.748 3.177 3.177 0 00-1.574-3.15c-.585-.337-1.17-.68-1.744-1.021l1.14-2.75c.645.163 1.3.335 1.954.51a3.178 3.178 0 003.341-1.114h0c.77-.99 1.662-1.881 2.65-2.65a3.176 3.176 0 001.113-3.34h0a135.98 135.98 0 01-.511-1.954l2.75-1.139c.34.572.683 1.156 1.02 1.743h0a3.176 3.176 0 003.148 1.575 15.174 15.174 0 013.749 0h0a3.177 3.177 0 003.15-1.574l-.347-.2.347.2c.337-.585.679-1.17 1.02-1.744l2.75 1.14c-.163.646-.334 1.301-.51 1.954h0a3.178 3.178 0 001.114 3.341c.99.77 1.881 1.662 2.65 2.65a3.176 3.176 0 003.34 1.112h0a136.41 136.41 0 011.954-.51l1.14 2.75c-.573.34-1.158.683-1.744 1.02a3.176 3.176 0 00-1.575 3.148 15.189 15.189 0 010 3.748 3.178 3.178 0 001.574 3.15c.585.337 1.17.68 1.744 1.022l-1.139 2.75c-.647-.164-1.302-.335-1.955-.511z" fill="#54A5E2" stroke="#54A5E2" stroke-width=".8"/><path d="M19.02 36.392h0c-5.298 2.194-7.823 8.287-5.628 13.584a10.333 10.333 0 005.628 5.627h0c1.282.531 2.63.797 3.98.797s2.698-.266 3.98-.797h0c5.298-2.194 7.823-8.287 5.628-13.584l-.37.153.37-.153c-2.194-5.297-8.289-7.822-13.588-5.627zm1.43 3.449h0a6.628 6.628 0 012.54-.508 6.677 6.677 0 016.169 4.114 6.671 6.671 0 01-3.608 8.707 6.622 6.622 0 01-5.102 0 6.62 6.62 0 01-3.607-3.607 6.671 6.671 0 013.607-8.706zM65.987 14.152l.053-.356a2.787 2.787 0 012.36 2.743v2.922a2.786 2.786 0 01-2.36 2.743c-.437.065-.885.13-1.335.19a14.358 14.358 0 01-.907 2.189c.275.361.546.723.81 1.08a2.787 2.787 0 01-.272 3.608l-2.066 2.065s0 0 0 0a2.786 2.786 0 01-3.608.271 99.568 99.568 0 01-1.08-.81 14.34 14.34 0 01-2.188.907c-.061.451-.125.899-.19 1.336h0a2.786 2.786 0 01-2.743 2.36h-2.922a2.787 2.787 0 01-2.743-2.36l.356-.053-.356.053c-.065-.437-.13-.884-.19-1.335a14.35 14.35 0 01-2.189-.907c-.36.274-.722.545-1.08.81a2.786 2.786 0 01-3.608-.272s0 0 0 0l-2.066-2.066a2.786 2.786 0 01-.271-3.607h0c.264-.357.535-.719.81-1.08a14.35 14.35 0 01-.907-2.189c-.45-.06-.898-.125-1.335-.19a2.786 2.786 0 01-2.36-2.743v-2.922a2.786 2.786 0 012.36-2.743c.437-.066.884-.13 1.335-.19.242-.753.545-1.486.907-2.189-.275-.362-.546-.723-.81-1.08a2.787 2.787 0 01.272-3.608s0 0 0 0l2.066-2.066a2.786 2.786 0 013.608-.27c.357.263.718.535 1.08.81a14.34 14.34 0 012.188-.908c.061-.45.125-.898.19-1.335h0A2.786 2.786 0 0149.54.6h2.922a2.786 2.786 0 012.743 2.36m10.783 11.192L54.808 3.019m11.179 11.133l.053-.356c-.437-.066-.884-.13-1.336-.19m1.283.546l-1.282-.547M55.203 2.96l-.396.059m.396-.06s0 0 0 0l-.396.06m.396-.06c.065.438.129.885.19 1.336m-.586-1.276c.078.517.153 1.048.224 1.583m.362-.307a14.29 14.29 0 00-.247-.076l-.115.383m.362-.307c.753.242 1.485.545 2.189.907m-2.189-.907l.034.254-.396.053m0 0l2.55.6m0 0l-.203.155.243.318.19-.352a14.27 14.27 0 00-.23-.12zm0 0c.362-.274.723-.545 1.08-.81l.221.3-.22-.3a2.786 2.786 0 013.608.272m-4.688.538l4.688-.538m0 0l-.283.282.282-.282h0zm2.433 8.941a14.333 14.333 0 00-.906-2.188c.275-.362.546-.723.81-1.08h0a2.786 2.786 0 00-.272-3.608s0 0 0 0l.368 6.876zm-1.03 5.25h0c.362-.048.723-.097 1.08-.148v-1.414c-.357-.05-.718-.1-1.08-.147a2.766 2.766 0 01-2.316-2.009 10.687 10.687 0 00-1.01-2.435 2.768 2.768 0 01.217-3.059h0c.223-.29.444-.58.66-.869l-1-1c-.289.218-.58.439-.868.66a2.767 2.767 0 01-3.06.217 10.68 10.68 0 00-2.434-1.009 2.767 2.767 0 01-2.009-2.316h0a97.656 97.656 0 00-.147-1.08h-1.414c-.051.357-.1.718-.148 1.08a2.766 2.766 0 01-2.008 2.316l15.537 11.212zm0 0a2.766 2.766 0 00-2.316 2.008m2.316-2.009l-2.316 2.01m-.793 5.493h0a2.767 2.767 0 01-.216-3.06l.216 3.06zm0 0c.223.29.444.58.66.869l-1 1a99.56 99.56 0 01-.868-.66 2.768 2.768 0 00-3.06-.217h0m4.268-.992l-4.267.992m0 0c-.767.436-1.587.775-2.435 1.009a2.766 2.766 0 00-2.009 2.316m4.444-3.325l-4.444 3.325m0 0c-.047.362-.096.724-.147 1.08h-1.414c-.05-.356-.1-.718-.147-1.08h1.708zm-3.717-2.316h0a2.767 2.767 0 012.009 2.316l-2.01-2.316zm0 0a10.675 10.675 0 01-2.435-1.009 2.767 2.767 0 00-3.06.216c-.288.222-.578.443-.868.661l-1-1c.217-.29.438-.58.66-.87h0m6.703 2.002l-6.702-2.001m0 0a2.768 2.768 0 00.216-3.06l-.216 3.06zm-3.11-9.211h0c-.361.047-.723.096-1.08.147v1.414c.357.05.719.1 1.081.147 0 0 0 0 0 0l-.052.397.052-2.105zm0 0a2.766 2.766 0 002.317-2.01m-2.316 2.01l2.316-2.01m.793-5.493h0c.682.887.767 2.088.216 3.06l-.216-3.06zm0 0a99.77 99.77 0 01-.661-.869l1-1c.29.218.58.439.869.66a2.767 2.767 0 003.06.217h0m-4.268.992l4.267-.992m0 0a10.685 10.685 0 012.434-1.009l-2.434 1.01zm15.656 12.212a10.681 10.681 0 01-1.009 2.435l1.009-2.435zm-20.716-5.726c.234-.849.573-1.668 1.008-2.435l-1.008 2.435z" fill="#54A5E2" stroke="#54A5E2" stroke-width=".8"/><path d="M48.067 18A2.937 2.937 0 0051 20.933 2.937 2.937 0 0053.933 18h-5.866zm0 0A2.937 2.937 0 0151 15.067M48.067 18L51 15.067m0 0A2.937 2.937 0 0153.933 18L51 15.067zm0-3.467c-3.53 0-6.4 2.87-6.4 6.4 0 3.53 2.87 6.4 6.4 6.4 3.53 0 6.4-2.87 6.4-6.4 0-3.53-2.87-6.4-6.4-6.4z" fill="#54A5E2" stroke="#54A5E2" stroke-width=".8"/></svg><svg fill="none" viewBox="0 0 70 70" id="benefits-item-icon-6" xmlns="http://www.w3.org/2000/svg"><path d="M52.646 52.4h8.375c4.065 0 7.379-3.259 7.379-7.275v-19.25c0-4.016-3.314-7.275-7.38-7.275H7.98C3.913 18.6.6 21.859.6 25.875v19.25c0 4.016 3.314 7.275 7.38 7.275h8.374c.986 0 1.796-.79 1.796-1.775 0-.986-.81-1.775-1.796-1.775H7.98c-2.093 0-3.787-1.677-3.787-3.725v-19.25c0-2.048 1.694-3.725 3.787-3.725h53.042c2.093 0 3.787 1.677 3.787 3.725v19.25c0 2.048-1.694 3.725-3.787 3.725h-8.375c-.986 0-1.796.79-1.796 1.775 0 .986.81 1.775 1.796 1.775zM24.429 61.4H41.57c1.028 0 1.829-.87 1.829-1.9 0-1.03-.8-1.9-1.829-1.9H24.43c-1.028 0-1.829.87-1.829 1.9 0 1.03.8 1.9 1.829 1.9z" fill="#54A5E2" stroke="#54A5E2" stroke-width=".8"/><path d="M24.429 55.4H41.57c1.028 0 1.829-.87 1.829-1.9 0-1.03-.8-1.9-1.829-1.9H24.43c-1.028 0-1.829.87-1.829 1.9 0 1.03.8 1.9 1.829 1.9zM24.5 49.4h6c.482 0 .937-.13 1.282-.36.343-.229.618-.588.618-1.04 0-.452-.275-.811-.618-1.04-.345-.23-.8-.36-1.282-.36h-6c-.482 0-.937.13-1.282.36-.343.229-.618.588-.618 1.04 0 .452.275.811.618 1.04.345.23.8.36 1.282.36zM50.814 20.571c0 1 .794 1.829 1.793 1.829 1 0 1.793-.829 1.793-1.829V9.143c0-4.148-3.292-7.543-7.364-7.543H21.964c-4.072 0-7.364 3.395-7.364 7.543V20.57c0 1 .794 1.829 1.793 1.829 1 0 1.793-.829 1.793-1.829V9.143c0-2.152 1.705-3.886 3.778-3.886h25.072c2.073 0 3.778 1.734 3.778 3.886V20.57z" fill="#54A5E2" stroke="#54A5E2" stroke-width=".8"/><path d="M21.964 69.4h25.072c4.067 0 7.364-3.346 7.364-7.446V39.41c0-.994-.799-1.809-1.793-1.809H16.393c-.994 0-1.793.815-1.793 1.81v22.545c0 4.1 3.297 7.445 7.364 7.445zm-3.778-7.446V41.219h32.628v20.736c0 2.115-1.7 3.828-3.778 3.828H21.964c-2.078 0-3.778-1.713-3.778-3.827z" fill="#54A5E2" stroke="#54A5E2" stroke-width=".8"/></svg></svg>