<?xml version="1.0" encoding="utf-8"?><svg viewBox="0 0 70 70" xmlns="http://www.w3.org/2000/svg" xmlns:xlink="http://www.w3.org/1999/xlink"><style>:root>svg{display:none}:root>svg:target{display:block}</style><svg fill="none" viewBox="0 0 22 13" id="accordion-arrow-down" xmlns="http://www.w3.org/2000/svg"><path d="M21 1L11 11 1 1" stroke="#57A6E2" stroke-width="2"/></svg><svg fill="none" viewBox="0 0 70 70" id="benefits-item-icon-1" xmlns="http://www.w3.org/2000/svg"><path d="M52.773 31.445a2.734 2.734 0 100-5.468 2.734 2.734 0 000 5.468z" fill="#54A5E2"/><path d="M59.063 5.469h-3.555V2.734a2.734 2.734 0 10-5.469 0V5.47H37.598V2.734a2.734 2.734 0 10-5.47 0V5.47H19.825V2.734a2.734 2.734 0 10-5.469 0V5.47h-3.418C4.907 5.469 0 10.375 0 16.406v42.657C0 65.093 4.907 70 10.938 70h20.917a2.734 2.734 0 100-5.469H10.938a5.475 5.475 0 01-5.468-5.469V16.407a5.475 5.475 0 015.468-5.468h3.418v2.734a2.734 2.734 0 105.47 0v-2.735h12.304v2.735a2.734 2.734 0 105.469 0v-2.735h12.441v2.735a2.734 2.734 0 105.469 0v-2.735h3.554a5.475 5.475 0 015.47 5.47v15.585a2.734 2.734 0 105.468 0V16.406c0-6.03-4.907-10.937-10.938-10.937z" fill="#54A5E2"/><path d="M53.457 36.914c-9.122 0-16.543 7.421-16.543 16.543S44.335 70 53.457 70 70 62.579 70 53.457s-7.421-16.543-16.543-16.543zm0 27.617c-6.106 0-11.074-4.968-11.074-11.074s4.968-11.074 11.074-11.074 11.074 4.968 11.074 11.074-4.968 11.074-11.074 11.074z" fill="#54A5E2"/><path d="M57.422 50.723h-1.23v-2.871a2.734 2.734 0 10-5.47 0v5.605a2.734 2.734 0 002.735 2.734h3.965a2.734 2.734 0 100-5.468zM40.879 31.445a2.734 2.734 0 100-5.468 2.734 2.734 0 000 5.468zM28.984 43.34a2.734 2.734 0 100-5.469 2.734 2.734 0 000 5.469zM17.09 31.445a2.734 2.734 0 100-5.468 2.734 2.734 0 000 5.468zM17.09 43.34a2.734 2.734 0 100-5.469 2.734 2.734 0 000 5.469zM17.09 55.234a2.734 2.734 0 100-5.468 2.734 2.734 0 000 5.468zM28.984 55.234a2.734 2.734 0 100-5.468 2.734 2.734 0 000 5.468zM28.984 31.445a2.734 2.734 0 100-5.469 2.734 2.734 0 000 5.47z" fill="#54A5E2"/></svg><svg fill="none" viewBox="0 0 70 70" id="benefits-item-icon-2" xmlns="http://www.w3.org/2000/svg"><path d="M62.5 7.5H55v-5a2.5 2.5 0 10-5 0v5H20v-5a2.5 2.5 0 10-5 0v5H7.5A7.5 7.5 0 000 15v47.5A7.5 7.5 0 007.5 70h55a7.5 7.5 0 007.5-7.5V15a7.5 7.5 0 00-7.5-7.5zm2.5 55a2.5 2.5 0 01-2.5 2.5h-55A2.5 2.5 0 015 62.5V30h60v32.5zM65 25H5V15a2.5 2.5 0 012.5-2.5H15v5a2.5 2.5 0 105 0v-5h30v5a2.5 2.5 0 105 0v-5h7.5A2.5 2.5 0 0165 15v10z" fill="#54A5E2"/><path d="M51.706 35.732a2.5 2.5 0 00-3.473 0L30 53.965l-8.233-8.233a2.5 2.5 0 00-3.534 3.535l10 10a2.5 2.5 0 003.535 0l20-20a2.5 2.5 0 00-.062-3.535z" fill="#54A5E2"/></svg><svg fill="none" viewBox="0 0 70 70" id="benefits-item-icon-3" xmlns="http://www.w3.org/2000/svg"><path d="M34.563 69.125C15.985 69.125.874 54.014.874 35.437.875 16.863 15.986 1.75 34.563 1.75c18.575 0 33.687 15.111 33.687 33.688 0 18.575-15.111 33.687-33.688 33.687zm0-63.164c-16.255 0-29.477 13.222-29.477 29.477 0 16.254 13.222 29.476 29.477 29.476 16.254 0 29.476-13.222 29.476-29.477 0-16.254-13.222-29.476-29.477-29.476z" fill="#54A5E2" stroke="#54A5E2"/><path d="M49.487 53.375a2.143 2.143 0 01-1.512-.616l-14.973-14.7a2.081 2.081 0 01-.627-1.484v-19.6c0-1.16.958-2.1 2.139-2.1 1.18 0 2.139.94 2.139 2.1v18.73l14.345 14.083c.836.82.836 2.15 0 2.97a2.143 2.143 0 01-1.511.617z" fill="#54A5E2" stroke="#54A5E2"/></svg><svg fill="none" viewBox="0 0 70 70" id="benefits-item-icon-4" xmlns="http://www.w3.org/2000/svg"><g clip-path="url(#eclip0_165:187)" fill="#54A5E2" stroke="#54A5E2" stroke-width=".5"><path d="M67.95 7.987H2.05a2.3 2.3 0 00-2.3 2.301v12.356a2.3 2.3 0 002.3 2.3H3.87v34.768a2.3 2.3 0 002.3 2.3h57.662a2.3 2.3 0 002.3-2.3V24.945h1.818a2.3 2.3 0 002.301-2.301V10.288a2.3 2.3 0 00-2.3-2.3zm-6.42 49.424H8.47V24.945h53.06V57.41zm4.118-37.068H4.352V12.59h61.296v7.754z"/><path d="M30.881 41.42h8.238c3.54 0 6.42-2.88 6.42-6.42s-2.88-6.42-6.42-6.42H30.88c-3.54 0-6.42 2.88-6.42 6.42s2.88 6.42 6.42 6.42zm0-8.238h8.238A1.82 1.82 0 0140.937 35a1.82 1.82 0 01-1.818 1.818H30.88A1.82 1.82 0 0129.064 35a1.82 1.82 0 011.817-1.818z"/></g><defs><clipPath id="eclip0_165:187"><path fill="#fff" d="M0 0h70v70H0z"/></clipPath></defs></svg><svg data-name="Слой 1" viewBox="0 0 38.59 38.59" id="benefits-item-icon-5" xmlns="http://www.w3.org/2000/svg"><path class="fcls-1" d="M24.58 27.69l-1.11-.68a11.15 11.15 0 000-2.31c.38-.22.76-.44 1.13-.67a1.74 1.74 0 00.71-2.15l-.87-2.11a1.75 1.75 0 00-2-1l-1.27.32a11.42 11.42 0 00-1.63-1.63c.11-.42.22-.85.32-1.27a1.75 1.75 0 00-1-2l-2.11-.87a1.73 1.73 0 00-2.17.69c-.23.37-.45.75-.67 1.13a11.15 11.15 0 00-2.31 0l-.7-1.13a1.74 1.74 0 00-2.16-.71l-2.1.87a1.75 1.75 0 00-1 2l.33 1.27a10.92 10.92 0 00-1.63 1.63l-1.28-.32a1.75 1.75 0 00-2 1l-.93 2.14a1.75 1.75 0 00.71 2.12c.37.23.75.45 1.14.67a9.92 9.92 0 000 2.33l-1.14.67a1.76 1.76 0 00-.71 2.16l.87 2.1a1.77 1.77 0 002 1l1.28-.33a10.47 10.47 0 001.63 1.63l-.33 1.32a1.73 1.73 0 001 2l2.1.88a1.85 1.85 0 00.66.13 1.75 1.75 0 001.5-.84c.22-.37.45-.75.67-1.14a9.92 9.92 0 002.31 0c.22.38.44.77.67 1.14a1.74 1.74 0 002.15.71l2.11-.87a1.75 1.75 0 001-2c-.1-.42-.21-.85-.32-1.28a10.92 10.92 0 001.63-1.63l1.27.33a1.77 1.77 0 002-1l.87-2.1a1.75 1.75 0 00-.62-2.2zm-7.07 7c.11.4.21.79.31 1.18l-1.7.71-.54-1.11a1.75 1.75 0 00-1.51-.87h-.22a8.67 8.67 0 01-2.16 0 1.73 1.73 0 00-1.72.86c-.2.36-.41.71-.62 1.06l-1.77-.7c.1-.39.21-.78.31-1.18a1.73 1.73 0 00-.6-1.83 8.21 8.21 0 01-1.51-1.53 1.73 1.73 0 00-1.83-.6l-1.18.33-.71-1.7 1.06-.62a1.73 1.73 0 00.86-1.72 8.67 8.67 0 010-2.16 1.74 1.74 0 00-.86-1.73l-1.06-.61.71-1.7 1.18.31a1.75 1.75 0 001.83-.61 8.52 8.52 0 011.53-1.53 1.73 1.73 0 00.6-1.83l-.33-1.2 1.7-.7c.21.34.42.7.62 1.05a1.72 1.72 0 001.72.86 9.75 9.75 0 012.16 0 1.72 1.72 0 001.72-.86c.21-.35.42-.7.62-1.05l1.7.7c-.1.39-.2.79-.31 1.19a1.74 1.74 0 00.61 1.82 8.86 8.86 0 011.53 1.53 1.75 1.75 0 001.83.61l1.18-.31.7 1.7-1.05.61a1.74 1.74 0 00-.86 1.73 9.18 9.18 0 010 2.16 1.75 1.75 0 00.87 1.72l1.05.62-.69 1.72-1.18-.3a1.71 1.71 0 00-1.83.61 8.8 8.8 0 01-1.53 1.52 1.75 1.75 0 00-.56 1.8z" fill="#54a5e2"/><path class="fcls-1" d="M18.14 23.62a5.862 5.862 0 10-10.83 4.49 5.88 5.88 0 005.41 3.62 5.87 5.87 0 005.42-8.11zm-1.83 3.73a3.89 3.89 0 11-5.08-5.08 4 4 0 011.49-.26 3.86 3.86 0 013.59 2.4 3.83 3.83 0 010 2.94zM37.31 7.54l-.82-.11a7.76 7.76 0 00-.55-1.33l.5-.66a1.53 1.53 0 00-.15-2L35.11 2.3a1.53 1.53 0 00-2-.15l-.66.5a7.76 7.76 0 00-1.33-.55c0-.28-.07-.55-.11-.82A1.51 1.51 0 0029.58.01h-1.69a1.51 1.51 0 00-1.49 1.28l-.12.82a7.62 7.62 0 00-1.33.55l-.65-.5a1.52 1.52 0 00-2 .15l-1.14 1.17a1.51 1.51 0 00-.15 2l.49.66a8.65 8.65 0 00-.55 1.33l-.81.11a1.51 1.51 0 00-1.28 1.43v1.67a1.51 1.51 0 001.28 1.49l.81.12a8.48 8.48 0 00.55 1.33l-.49.65a1.51 1.51 0 00.15 2l1.18 1.18a1.51 1.51 0 002 .15l.65-.49a9.08 9.08 0 001.33.55l.12.81a1.51 1.51 0 001.49 1.28h1.65a1.51 1.51 0 001.49-1.28c0-.27.08-.54.11-.81a8.65 8.65 0 001.33-.55l.66.49a1.51 1.51 0 002-.15l1.18-1.18a1.53 1.53 0 00.15-2l-.5-.65a8.1 8.1 0 00.55-1.33l.82-.12a1.51 1.51 0 001.21-1.47V9.01a1.51 1.51 0 00-1.27-1.47zm-3.18 5.39a1.5 1.5 0 00.12 1.66l.42.56-.67.66c-.18-.13-.37-.27-.55-.42a1.5 1.5 0 00-1.66-.11 6.16 6.16 0 01-1.41.58 1.51 1.51 0 00-1.09 1.26l-.09.69h-.95l-.09-.69a1.51 1.51 0 00-1.09-1.26 5.82 5.82 0 01-1.41-.58 1.5 1.5 0 00-1.66.11c-.19.15-.37.29-.56.42l-.66-.66c.13-.19.27-.37.42-.56a1.5 1.5 0 00.11-1.66 5.82 5.82 0 01-.58-1.41 1.51 1.51 0 00-1.26-1.09l-.68-.09v-.95l.68-.09a1.51 1.51 0 001.26-1.09 6.16 6.16 0 01.58-1.41 1.5 1.5 0 00-.11-1.66c-.15-.18-.29-.37-.42-.55l.66-.67.56.42a1.5 1.5 0 001.66.12 5.84 5.84 0 011.41-.59 1.5 1.5 0 001.09-1.25l.09-.69h.95l.09.68a1.5 1.5 0 001.09 1.26 6.2 6.2 0 011.41.59 1.5 1.5 0 001.66-.12l.55-.42.67.67-.42.55a1.5 1.5 0 00-.12 1.66 6 6 0 01.59 1.41 1.5 1.5 0 001.25 1.09l.69.09v.95l-.68.09a1.5 1.5 0 00-1.26 1.09 5.84 5.84 0 01-.59 1.41z" fill="#54a5e2"/><path class="fcls-1" d="M28.72 6.44a3.43 3.43 0 103.43 3.43 3.44 3.44 0 00-3.43-3.43zm0 5.33a1.91 1.91 0 111.91-1.9 1.9 1.9 0 01-1.91 1.9z" fill="#54a5e2"/></svg><svg fill="none" viewBox="0 0 70 70" id="benefits-item-icon-6" xmlns="http://www.w3.org/2000/svg"><path d="M52.646 52.4h8.375c4.065 0 7.379-3.259 7.379-7.275v-19.25c0-4.016-3.314-7.275-7.38-7.275H7.98C3.913 18.6.6 21.859.6 25.875v19.25c0 4.016 3.314 7.275 7.38 7.275h8.374c.986 0 1.796-.79 1.796-1.775 0-.986-.81-1.775-1.796-1.775H7.98c-2.093 0-3.787-1.677-3.787-3.725v-19.25c0-2.048 1.694-3.725 3.787-3.725h53.042c2.093 0 3.787 1.677 3.787 3.725v19.25c0 2.048-1.694 3.725-3.787 3.725h-8.375c-.986 0-1.796.79-1.796 1.775 0 .986.81 1.775 1.796 1.775zM24.429 61.4H41.57c1.028 0 1.829-.87 1.829-1.9 0-1.03-.8-1.9-1.829-1.9H24.43c-1.028 0-1.829.87-1.829 1.9 0 1.03.8 1.9 1.829 1.9z" fill="#54A5E2" stroke="#54A5E2" stroke-width=".8"/><path d="M24.429 55.4H41.57c1.028 0 1.829-.87 1.829-1.9 0-1.03-.8-1.9-1.829-1.9H24.43c-1.028 0-1.829.87-1.829 1.9 0 1.03.8 1.9 1.829 1.9zM24.5 49.4h6c.482 0 .937-.13 1.282-.36.343-.229.618-.588.618-1.04 0-.452-.275-.811-.618-1.04-.345-.23-.8-.36-1.282-.36h-6c-.482 0-.937.13-1.282.36-.343.229-.618.588-.618 1.04 0 .452.275.811.618 1.04.345.23.8.36 1.282.36zM50.814 20.571c0 1 .794 1.829 1.793 1.829 1 0 1.793-.829 1.793-1.829V9.143c0-4.148-3.292-7.543-7.364-7.543H21.964c-4.072 0-7.364 3.395-7.364 7.543V20.57c0 1 .794 1.829 1.793 1.829 1 0 1.793-.829 1.793-1.829V9.143c0-2.152 1.705-3.886 3.778-3.886h25.072c2.073 0 3.778 1.734 3.778 3.886V20.57z" fill="#54A5E2" stroke="#54A5E2" stroke-width=".8"/><path d="M21.964 69.4h25.072c4.067 0 7.364-3.346 7.364-7.446V39.41c0-.994-.799-1.809-1.793-1.809H16.393c-.994 0-1.793.815-1.793 1.81v22.545c0 4.1 3.297 7.445 7.364 7.445zm-3.778-7.446V41.219h32.628v20.736c0 2.115-1.7 3.828-3.778 3.828H21.964c-2.078 0-3.778-1.713-3.778-3.827z" fill="#54A5E2" stroke="#54A5E2" stroke-width=".8"/></svg><svg fill="none" viewBox="0 0 13 22" id="reviews-btn-next" xmlns="http://www.w3.org/2000/svg"><path d="M1 1l10 10L1 21" stroke="#57A6E2" stroke-width="2"/></svg><svg fill="none" viewBox="0 0 13 22" id="reviews-btn-prev" xmlns="http://www.w3.org/2000/svg"><path d="M12 21L2 11 12 1" stroke="#57A6E2" stroke-width="2"/></svg></svg>