<svg xmlns="http://www.w3.org/2000/svg" xmlns:xlink="http://www.w3.org/1999/xlink"><symbol id="icon-close" viewBox="0 0 20 20"><path d="M.293 18.291a1 1 0 101.414 1.414L10 11.413l8.292 8.292a1 1 0 101.414-1.414l-8.292-8.292 8.292-8.292A1 1 0 1018.291.293L9.999 8.585 1.707.293A1 1 0 10.293 1.707L8.585 10 .293 18.291z"/></symbol><symbol id="icon-rouble" viewBox="0 0 34 34">
<path fill-rule="evenodd" clip-rule="evenodd" d="M15.635 11.1254V16.0749C15.6662 16.0749 15.6981 16.0749 15.7306 16.0747C16.3318 16.0713 17.1144 16.0268 17.8818 15.8708C18.6623 15.712 19.3436 15.4543 19.8118 15.0813C20.2407 14.7397 20.5119 14.2909 20.5119 13.6003C20.5119 12.9097 20.2407 12.4608 19.8118 12.1192C19.3436 11.7461 18.6623 11.4884 17.8818 11.3296C17.1144 11.1736 16.3317 11.129 15.7305 11.1256C15.6981 11.1254 15.6662 11.1254 15.635 11.1254ZM15.635 17.998C15.6698 17.998 15.7052 17.9979 15.7413 17.9977C16.4151 17.994 17.3325 17.9449 18.2651 17.7553C19.1846 17.5683 20.2033 17.2282 21.0101 16.5855C21.8562 15.9115 22.435 14.9267 22.435 13.6003C22.435 12.2738 21.8562 11.2891 21.0101 10.615C20.2033 9.97235 19.1846 9.63218 18.2651 9.44516C17.3325 9.25548 16.4152 9.20638 15.7414 9.20258C15.4018 9.20066 15.1179 9.21024 14.9168 9.22047C14.8161 9.22559 14.7359 9.23089 14.6794 9.23504C14.6511 9.23711 14.6288 9.2389 14.6128 9.24024L14.5936 9.24189L14.5876 9.24242L14.5856 9.24261C14.5856 9.24261 14.5842 9.24274 14.6735 10.2001L14.5842 9.24274L13.7119 9.32407V25.5001C13.7119 26.0311 14.1424 26.4616 14.6735 26.4616C15.2045 26.4616 15.635 26.0311 15.635 25.5001V22.2116H20.6539C21.185 22.2116 21.6155 21.7811 21.6155 21.2501C21.6155 20.7191 21.185 20.2886 20.6539 20.2886H15.635V17.998Z" fill="currentColor"/>
</symbol></svg>