<svg width="18" height="20" viewBox="0 0 18 20" fill="none" xmlns="http://www.w3.org/2000/svg">
<path d="M10.5 11.5V6C10.5 4.93913 10.0786 3.92172 9.32843 3.17157C8.57828 2.42143 7.56087 2 6.5 2C5.43913 2 4.42172 2.42143 3.67157 3.17157C2.92143 3.92172 2.5 4.93913 2.5 6V11.5C2.5 13.2239 3.18482 14.8772 4.40381 16.0962C5.62279 17.3152 7.27609 18 9 18C10.7239 18 12.3772 17.3152 13.5962 16.0962C14.8152 14.8772 15.5 13.2239 15.5 11.5V2H17.5V11.5C17.5 13.7543 16.6045 15.9163 15.0104 17.5104C13.4163 19.1045 11.2543 20 9 20C6.74566 20 4.58365 19.1045 2.98959 17.5104C1.39553 15.9163 0.5 13.7543 0.5 11.5L0.5 6C0.5 4.4087 1.13214 2.88258 2.25736 1.75736C3.38258 0.632141 4.9087 0 6.5 0C8.0913 0 9.61742 0.632141 10.7426 1.75736C11.8679 2.88258 12.5 4.4087 12.5 6V11.5C12.5 12.4283 12.1313 13.3185 11.4749 13.9749C10.8185 14.6313 9.92826 15 9 15C8.07174 15 7.1815 14.6313 6.52513 13.9749C5.86875 13.3185 5.5 12.4283 5.5 11.5V6H7.5V11.5C7.5 11.8978 7.65804 12.2794 7.93934 12.5607C8.22064 12.842 8.60218 13 9 13C9.39782 13 9.77936 12.842 10.0607 12.5607C10.342 12.2794 10.5 11.8978 10.5 11.5Z" fill="currentColor" fill-opacity="0.5"/>
</svg>
