<svg width="70" height="70" viewBox="0 0 70 70" fill="none" xmlns="http://www.w3.org/2000/svg">
<path d="M34.5625 69.125C15.9865 69.125 0.875 54.0135 0.875 35.4375C0.875 16.8615 15.9865 1.75 34.5625 1.75C53.1385 1.75 68.25 16.8615 68.25 35.4375C68.25 54.0135 53.1385 69.125 34.5625 69.125ZM34.5625 5.96094C18.3083 5.96094 5.08594 19.1833 5.08594 35.4375C5.08594 51.6917 18.3083 64.9141 34.5625 64.9141C50.8167 64.9141 64.0391 51.6917 64.0391 35.4375C64.0391 19.1833 50.8167 5.96094 34.5625 5.96094Z" fill="#54A5E2" stroke="#54A5E2"/>
<path d="M49.4866 53.375C48.9388 53.375 48.3915 53.1704 47.9748 52.7587L33.0022 38.0589C32.6001 37.6641 32.375 37.1294 32.375 36.5751V16.975C32.375 15.8158 33.3332 14.875 34.5139 14.875C35.6946 14.875 36.6529 15.8158 36.6529 16.975V35.7041L50.9984 49.7882C51.8339 50.6085 51.8339 51.9384 50.9984 52.7587C50.5816 53.1704 50.0344 53.375 49.4866 53.375Z" fill="#54A5E2" stroke="#54A5E2"/>
</svg>
