<svg width="70" height="70" viewBox="0 0 70 70" fill="none" xmlns="http://www.w3.org/2000/svg">
<g clip-path="url(#clip0_165:187)">
<path d="M67.9492 7.9873H2.05078C0.780132 7.9873 -0.25 9.01744 -0.25 10.2881V22.644C-0.25 23.9147 0.780132 24.9448 2.05078 24.9448H3.86865V59.7119C3.86865 60.9826 4.89878 62.0127 6.16943 62.0127H63.8306C65.1012 62.0127 66.1313 60.9826 66.1313 59.7119V24.9448H67.9492C69.2199 24.9448 70.25 23.9147 70.25 22.644V10.2881C70.25 9.01744 69.2199 7.9873 67.9492 7.9873ZM61.5298 57.4111H8.47021V24.9448H61.5298V57.4111ZM65.6484 20.3433H4.35156V12.5889H65.6484V20.3433Z" fill="#54A5E2" stroke="#54A5E2" stroke-width="0.5"/>
<path d="M30.8813 41.4194H39.1187C42.6586 41.4194 45.5381 38.5399 45.5381 35C45.5381 31.4601 42.6586 28.5806 39.1187 28.5806H30.8813C27.3414 28.5806 24.4619 31.4601 24.4619 35C24.4619 38.5399 27.3414 41.4194 30.8813 41.4194ZM30.8813 33.1821H39.1187C40.1208 33.1821 40.9365 33.9978 40.9365 35C40.9365 36.0022 40.1208 36.8179 39.1187 36.8179H30.8813C29.8792 36.8179 29.0635 36.0022 29.0635 35C29.0635 33.9978 29.8792 33.1821 30.8813 33.1821Z" fill="#54A5E2" stroke="#54A5E2" stroke-width="0.5"/>
</g>
<defs>
<clipPath id="clip0_165:187">
<rect width="70" height="70" fill="white"/>
</clipPath>
</defs>
</svg>
